<mxfile host="app.diagrams.net" modified="2023-04-15T14:26:12.388Z" agent="Mozilla/5.0 (Windows NT 10.0; Win64; x64) AppleWebKit/537.36 (KHTML, like Gecko) Chrome/111.0.0.0 Safari/537.36" etag="orV6sWOtkfUrIrwuvX_9" version="21.1.4" type="device">
  <diagram name="Page-1" id="ZZF69kOr0MhWDzrSJU30">
    <mxGraphModel dx="3235" dy="1520" grid="0" gridSize="10" guides="1" tooltips="1" connect="1" arrows="1" fold="1" page="1" pageScale="1" pageWidth="850" pageHeight="1100" math="0" shadow="0">
      <root>
        <mxCell id="0" />
        <mxCell id="1" parent="0" />
        <mxCell id="DjFTVbm2SqqyD_zfQVQ5-17" value="" style="edgeStyle=orthogonalEdgeStyle;rounded=0;orthogonalLoop=1;jettySize=auto;html=1;" parent="1" source="DjFTVbm2SqqyD_zfQVQ5-10" target="DjFTVbm2SqqyD_zfQVQ5-16" edge="1">
          <mxGeometry relative="1" as="geometry" />
        </mxCell>
        <mxCell id="DjFTVbm2SqqyD_zfQVQ5-10" value="" style="rounded=1;whiteSpace=wrap;html=1;" parent="1" vertex="1">
          <mxGeometry x="-312.5" y="61" width="490" height="500" as="geometry" />
        </mxCell>
        <mxCell id="DjFTVbm2SqqyD_zfQVQ5-2" value="B1:&amp;nbsp; Chia key và IV thành các khối 32 bit,&lt;br&gt; key và IV được mở rộng thành một mảng Wi (0 ≤ i ≤ 2559) bằng cách sử dụng phép xor&amp;nbsp;" style="rounded=1;whiteSpace=wrap;html=1;" parent="1" vertex="1">
          <mxGeometry x="-245" y="111" width="270" height="60" as="geometry" />
        </mxCell>
        <mxCell id="DjFTVbm2SqqyD_zfQVQ5-3" value="" style="shape=image;verticalLabelPosition=bottom;labelBackgroundColor=default;verticalAlign=top;aspect=fixed;imageAspect=0;image=data:image/png,iVBORw0KGgoAAAANSUhEUgAAAhEAAAAkCAYAAAA3tmglAAAgAElEQVR4nO2deXhN1/rHP2fIySQJJQkiJ0FIDCWuGHOSaFVrVjHPbbW0OvxU6Uhvo2oebhUlIkpxKyqh7TWUUhKJIkUQU0ISRFKEGo7k5Oy9f38kIcM5GY6EuHd/nsfjyd7r7P1913732u9a691rKyRJkpCRkZGRkZGRqSDKJy1ARkZGRkZG5ulEDiJkZGRkZGRkLEIOImRkZGRkZGQsQg4iZGRkZGRkZCxCDiJkZGRkZGRkLEIOImRkZGRkZGQsQg4iZGRkZGRkZCxCDiJkZGRkZGRkLEIOImRkZGRkZGQsQg4iZGRkZGRkZCxCDiJkZGRkZGRkLEIOImRkZGRkZGQsQg4iZGRkZGRkZCxCDiJkZGRkZGRkLEIOImTMI2awKzyy7G2PGzMaxIxdhEeeewKCzCGSsSucyHNCsc3VoA5lZMogY9dqIs8ZkYptFzN2sTryHFLxHU8aMYPdqyORiggTydht2o4nR56mqOKaxAx2r44qpr/6o67sA4q30jibkY1GY4VSkbdNEgWMuQasXX3wqFUN4hbhJhcTL3FPpcHGRoNSMmLIzsGgdsHb2xXrgnI5mZw7ew2jxgZrKxFDthoX70bUrvRaqygCNy8mcumeCo2NDRqlhNGQTY5BjYu3N64PDSDz3FmuGTXYWFshGrJRu3jTqLwGGM+zfVkk3V4LLn1bYWU3L5J46R4qjQ02GiWS0UB2jgG1izfeD4WRk3mOs9eMaGyssRINZKtd8G5Uu3wOaUaD8fx2lkV24rXgpuWzr8oxcn77MiI7DSW4qV2hzaXX4dPvn+VF5MaZOI4lZ3Lt+i1qdhxNd+8Kijf8RdKZDLLV1vl1lZtXV9SkVQt3ELK4ePoqORobNGowGnIw5Eo4apuhdSrcFoncSk3k0j01ttZWCDn3EZ08aeZWo1IttgTDX0mcychGbZ1/T+Xm3VPUbEQLd1uyLp7mao4GmzwDyTHkIjlqaaZ1KtJLFG+lknjpHmpba6yEHO6LTng2c8Oched3LCOq42D6N1GD4uF24/kdLIvqyCv9m1BkR55a/ko6Q0a2Guv8tinXkE2e3Ba41xCqTC/G82z/NoquY/oXkmUkafu3RHUcRP8mNUrKfSLkaYrsMIh+TWqgKNBkTGL7t5F0HdOPhxsLUYavC1kXOX01B42NBjVGDDkGciVHtM20FHX1W6QmXuKe2hZrK4Gc+yJOns2w1NUr/YkuXj5I5IbVLHjrBXwaN8KrTV8mLwrj+39HEndJrOzTWYR4+zR7IyMInzoQXy8vfLqMZ/6aCLbsOUVWIYlC+kFWvdeNVs1b4D9oMgvW7SP5/pPT/QDxNqf3RhIRPpWBvl54+XRh/Pw1RGzZw6miBnBw1Xt0a9WcFv6DmLxgHfuq1ACR26f3EhkRztSBvnh5+dBl/HzWRGxhz6ksHioTSD+4ive6taJ5C38GTV7Aun3JVIeqrQ489f5Zboxcjv+Vn1dN443X3iH0UE6Fe4vitRP8GrWJ8M9eppVXY3yC3mDu6o1s3haPJIF46zS/bf6O6cP8aNK4CW1f/pClG37hz8zibdE9zu5ayeTevjRtpmP4J/9i4+HMatB7Fbl2YhdbNoXz2cut8WrsQ9AbcwjfuJlt8ZeRxFuc3hPJd9OH0a5pY5q0fZkPl6znlz8zEIuJv3d2Nysn98a3aTN0wz/hXxsPkWmsZAvFa5zYtYVN4Z/Rv3UTGvsE8caccDZu3kb85dwHetdMH/5A75Ql6/klvhS93s3QDf+YRT9Ugd6nCPHaSXZt+ZHwz/rTukljfIJeZ074D2zedgRJErh1Zg+Ra75keLumeDVpy8tTlrD+53gySlTsOXavnExvX2+a6Ybx8aIfOJT5CCM1UhWREztF8lEjWfdeLd2u1CNnS3sWLpJich79SH+F9ZLsFRopYH6yZDRV4NYf0vxRg6WPI05Vsg2VxF9hUi97haQJmC8lmzZA+mP+KGnwxxHSKUsMyNkvvd92RNnbSgqTwnrZSwpNgDTftDDp1h/zpVGDP5YiLBFmRkPO/veltiMiKn68KiNH2v9+W2lExL1im8tTh3n+WUOhkQLmJz2d/llOhMuLpeetbaX+a+9KooXHuB7eR3JQaqSAeUlSromD3AjrJdkqrSS/6SdN7s/jphTxSmfptR9TpVwLdVQd16XVfRwkpSZAmpeUW7KebqySetkqJSu/6dJJ8wZKNze9InV+7UcptZQyBeyf5CeNjLgricWK5uyfJPmNjJDE4juKyF0t9XFUStYB86TzJi/IKqmXnVLS+E2XTpSld+ymcumVcvZLk9qNlEShcNkcKXpSO2lkxJ0Sdjw58jVtvCMVlRqdr18o9dfXV/eVHFXWUsC885KhpCNIq3rbSSqNnzT9hMH8/XRzk/Sq/1hpU0opZcpJ1Q18KpV5wxwF/1cWYgYJcadp/NajHkhPXPQR7qubogvUoiq29+7J9cxbc42gORt4vl7xvdUDfVw0R+6raaoLRFvSANbPW8O1oDlseL5eCfuqWBjRR+6jbqojsKQwTq6fx5prQczZ8DzVtGqrAXriouPRP8X+WW7U6kecV9UTG3MEvaopuiAtKhMjwfYeWlyUIumpqRhpYfJ8+j8W80uD2SwJ1lb+PO+joo8l+ogedVMdQVpVyVF5ey1aFyVSegqpRmhh2kAW/9yA2UuC0aqrdlxfHxdN/D01TXRBaE1ekDy9YnoKabl5ekuU0v/B4p/dmbVkQJXrfXrQExdzBL2qCbpAU35qj4fWBaWYTkqqEamFlYmZET2HFv9Cg5mLGaC1euQZnmqQoFAxxMvb2XnU+OgHMhxjf9wNFM4d0D1b+FLoORMRwhfba/P6rInVuIE2cGx/HDcUznTQPVvEmfRnIgj5Yju1X5/FxMcdQACGY/uJu6HAuYOOolV7hoiQL9he+3VmTZQDiFIxHGP/wet5/tnSqtCOp8U/HyOG48TEXQeXTgS0VJtsFNVaT9yUEjfSUrllalY15xjfLLvHqEk6HKrh88pwPIa46wqcOwbQ0tQDVa3F002JeOMSqbdEE0PTORz7Zhn6UZPQVbmBBo5HH+SawpmOAS2wMlVErcWzvuqB3pIU6H2fgBrV8II8KQwJRMddB+eO6FqairzUuHu4oRSzSEu9hWlX/4Zl+hG8H+BgMvWiolS/ICLnGmcO7GT73mNc0RfbdyeB5e/NYPedR58XE1Kiib0oYN8+kI42BedOJmrGNKJsxzBzSnfcq113pBBCCtGxFxHs2xP40ACSo2YwLcqWMTOn0P2JGCCQEh3LRcGe9oEdeVi1UcyYFoXtmJlM6e5e/Xp61YzC/tnBNn/jY/VPgZsXDrN3xy7iTmegN5nOJKC/eZWU5HTuiABG/r5ylsSkTO6Vlf6U/RcXzqaSlVMJStOiOZAsUKN9AB1sTLeKKjcPGtiBcCWFlBLz6kYSv/2ajIFTeK5WdXxgCaTFHCBZsKd9YIcH91QRVG54NrAD8QopKSU7WcbE5XydOZDJz9Wq+txCIY2YA8kI9u0IbG9rOpmxsN7U3FL01qyUB91/C0JaNLHJRuzb5fl6yapR4ebZADuFQHpqCiUyHYyJLF+cyYDJz1Ozkiq2+gQRYia/ffky/v1msu+2HbY3tvN+1yD+LzIFI2BM3MDkNz9j3Ym/Ef7ez/yRgxk8eDBDJ4RxwoKBiayYGE4YrWil0+EEGFJ+4sNufYny+ZxP+niiqWz7KpusGGJOGLFqpUOXZwA/fdiNvlE+fP5JHzyfmAFZxMScwGjVCl2eMFJ++pBufaPw+fwT+jw5YU8VWTExnMy1opXOn5o8Zv+8e4TQjz5k+d5M1E5q0ja/ywsvvMP3J+4+LJOzj6/6BdC6kTuN/aey++xW5nz6Fau2HSJuzVj8Wgzk24TsYgcWyfrjW8b168/42ZuIPvgfVkx7h083XiDnEfoFt6IPkGC0wjcgACdz7aKVFo96KsT0VNKKtRdC0koWJvXkw551HvuoXfm4RUxMAkYrXwICnMy8YWCFu0c9VEI6KWlGijw7hCTCFibRc0pPaj8OA2/FEHMiF41vILqa5l6IKK9eOYIozK2YAyQYNfgGBuBkJgiw0mqppxJIT0mjaLwskBS2iKQeU+hZ28SUmIVUkw5hNke+epmBYU0IO7SAAa5KIIB2tdNpM/B1vFrt5N3mw5m/fiAHP/QlcG1HJq8Lp7fJkLw86ImLPoxe5YW/ri7pOxfy9brNfB97BkWDX8kaOIhnLDquyNVtM5m28TyGCrzrq1A788IHcxhlciLTNPq4aA7rVXj566ibvpOFX69j8/exnFE04NesgQyyzIBHRx9H9GE9Ki9/dHXT2bnwa9Zt/p7YMwoa/JrFwCcm7Gkizz/vqbzw19Ur4Z83Bg6idpWdWyA5dAqfbdQwOeIrAtrbQKf21LvhR/fgT6l/bDFd7QHrID7bGs2QuUE8OzeJHyPuMn36P2msBsRA7sQ049PpmxmyaQTP5LdWf0d/To/gn/Df+DsLny/wgzscntWPlUYIskivntiYw+hV3ugC3Mz3itSeeLgpkZIuk3JVQPLKn/YQUlg79xiBny2r8PTatq/eYOO5nAqsl6BA7fwCk2aPoqXJMX4z6GOJPqxH7e1PgJvSTOOvxtPTDaWUxJWUqwh45TfuAinfz+Vo4Gcsq1t5D45S5cZFc+Semqb+AbgpzZ1RjadnfVTS+Xy9TZ6Y3qcHPXExh9GrmuKvczOZ+wOg9vDETQlJl1O5KkCT/JtCSPmeeUcD+HRpXbO/tYRqEUSI6esJWRiP6+sL6OP6sBmw7/wyLziE8f3Gs0z4rHnl9RIMx4mOuwHPdEC1L4Rw7RhCwjqhjA9i/s/LWX8xmHcbWnI2Jc5+wbxW4zq5FQkiVE409KzIpTBwPDqOGzxDB9U+QsK1jAkJo5MynqD5P7N8/UWC321ovr6ETA6uC2fHJRHJoKHlwDcY0KpmpQxLGY5Hk1e1KvaFhKMdE0JYJyXxQfP5efl6Lga/S1lVm5O2iyVrr9Pnk2E0reSekzEzgdg0J/zaeWBnvhAJsWk4+bXDw3whMhNiSXPyo535QpZhzj//zPPPDReCebeR6YoxHpnLa9/cpnV7dxytCzXCCnt8ug9G51Z2haqcnsHm75Nc+bugy25P++c64rhsD7+dyqVr+4InoIIaNWyRbiVRSzcgL4AAULri0cAO/alzpBnhGSvAGM/CiQtIbPc1W4IKB5IO/KP/CzT54mCFqwl4mA/h2gedmXyIPE218NDWQileJjXVCF5qQCR901wO+E1huUfFHc2v/6vUuJ5boSBC5dSQhhUJIHiYD+HS20w+BABKamm11FJKXE5JxZgfRIjpPzI3xo8py4smnAqZB1m/egdpgoRB05IBrwfTulZl3GwF+RAu9DKXD1Gg16NAbxq5+UGEOb0AOWm7Wfr9NXp9NBTvSk60LE+7YMxMIC7NibZltR1xaTi1La3tsJCCfAiXXsXypIqirOWBtpYS8UoKqUYJLysFCjGdH+fF0HbKtw+SVI3x83j9m7951s8dR5tibcVLg/BvUMr9VIgnGESI3Ew4zNXGHXDft4Pov8GbTKJ/+61QkXSM9gKpScnkUnlBhJAWTewFAauGtni8OJVxvg6AwLixnVg6JZqwVUcZP8PPoiFjtUtzOrtUklBzCGlEx15AsGqIrceLTB3niwMgjBtLp6VTiA5bxdHxM/AzZYCYwZa3BrK2TRgbpvqguXOEuUNf5pMpW5nTxelRhZEWHcsFwYqGth68OHUceVU7jrGdljIlOoxVR8czw7Qwbuxdwqz/XMEqbTtf/9kFvw8rOYgQTjG3XwemxtfnnV2JLO5ibaoQp+b2o8PUeOq/s4vkxV3MHGou/TpMJb7+O+xKXIzJQ1kq05x/vtaJZVOiCQs375+3E6L5Zeth9vxmhbKgFyjc4ZbjMH7oO6QcZ1fhOXYzl8YCGLl5LoaY+POkHkzGIOWgv28i2UHVkKZNijZqSpUKcnMx5P9tPBbJlpMCHi/5Uqf4NVWYmtstHwX5EA69A+lgXdpR1Hh4uKGSEklN0QM2iH9tZc5OHz4I9bKoIXRp3pmqvtUf5kPUoHdQB0pzM7WHB24qkcS0FPRI2IjX+GnODnwmhdK40ENXzNjKhEFr8Q1dx2fNrLl7ZB7Dgj/lg6jZPFfzER/OBfkQNXoS1N6m1MWd1FoP6qtFElPz9Nqa1Cty4/elzP7PZdSpO1j8ZxD/+GAoFV2TrHTNp5jXvxNTD9dlws6TLH7OtmQeRnnKIHBqXn86TT1M3Qk7Ob/4OZSVmNBRkA9Ro2cgHaxLqVq1Fq2bCvFUKil6wFbkr5/msMN7EisaP3wb43ZCDD9vPcTu3epibcVQNvQeVG5dTzAnIpc/v9/AUVHk9rUb3EeJrb0TNjY2D//ZNWJM6O/s+GcX08lEFpIVHU2C0YoO42cx1tchf6uKRqPfpFdtgVNrlrPrTiWesLLJiiY6wYhVh/HMGpsXQACoGo3mzV61EU6tYbkZA4xHlzF9WxNeGeODDaB08OPNIbVYPX01FwSTP6mIMKKjEzBadWD8rLE8rNpGjH6zF7WFU6xZvgvTypTUfu495s+fw7Rg76qZ81e40LqzL14t/GmrNdcKKXBp3Rlfrxb4t9WWcqjWdPb1ooV/W8weykIe+ufMEv7Zs06+f9429UsDZ1IbMedUOpcvXyItLY20lHhCXx1CyIb59HQu5+0upLN3weu8GNiHKT+cx8orgD5BTbE3+wMlalMdI0l6MNVtvHKFqwI4ODpW6hB1QT5EmwAdjqUeWI3WowFWGLmSmopRusnOuVG4TRyPTwVHBh4vBfkQbQjQOZbxUPakgRUYr6SSaoSbO+cS6fZ/jG9W+DU+I0e/nc42r9GM9rFFgRIHv/EMqfUdM767wCOv5VSQD9EmEH9z6RvF9Ar5eSo3fzWlV0ntLu8yb94cpg3wptQ40VIULrTu1Bqvlv601VqZFq1woXUn39LLoMCldSd8vVrmtx2VK/ZhPoQOx9KCE7UWzwZWKIR00lKNcPNX5ka68X/jmqF58DMDZ1MbMvvEZS4VaitWvjaUkPXz6OVSvlEIeJIjEWIGiddVtNAoqdWgHjUUEqo6zejkX69CkU3O/hWssX+VcW3L+9jRc3D/EfRqbwIC3YuMbiid+zNhWCOilm5mecR0eoytX8EoSyRjx1xCNp0np0LTGS50nTSD4c3Kdzn0B/dzRK/GOyAQ96IG0H/CMBpFLWXz8gim9xhL/SIGCKTu2cPZui/SqFB12XlocTzyG/v+nkijR0lZ0B9k/xE9au8AAosKw7n/BIY1imLp5uVETO/B2PpPIH5VOtNrYRy9Si+Ec6+FxJVeCKVzLxaWVcgiyvDPoY3z/HNTCD3GFs8BUOE5eDxN6hVsFbiw/it2Pfspc9uUd2z1JjsnvcjAH7TM3hvF283zwvecW+pCPS8RkYqt/6J0caGOEu7dvVOJq0AW5EP4oAss+1618dDiqhS4nJpC1u8RbHB8h9BW1hY39TvmTGDTueyKTWe4dOX9L4fTvLyBS0E+hI8/gfXN5UPkY6NF66pEvJxCStZeIjY48nZo66IPXiGVvXvOUrdbo0KBuh1arSNHftvHrf9rRJ1HePgV5EN4+weWkg9RVK9wOYWUG3uJWG9C7+NA6UzPBbH0LLPMgdLLoMS55wIOlF7IQgryIbzRBdQvI6fBBg+tK0rhMikpWez9cT1Ob6+gdZGKVeExaBxe9QumMQQubJjFrpYfM7tNjQq9EWP2qXU37TR/OTSlUaXMk5XEeOYHNqc6000Ndl3608N1E3vjD6Onb9G10fVxfLfZhpGj2qBGidpKBZL44P1XY2YKaa4VOLHhONEHr6Nw7UvAs8XNt0E3bgxtQj9n14pwEsdMpWWFwiwlz/j2YpjmWgVzIhxpVO739fLmHK8rXOkb8GyJC2ijG8eYNqF8vmsF4YljmFrEACOX0tIRbe2wK+wkNjZocq+SdsUIz1geVxqOR3PwugLXvgGUrFod48a0IfTzXawIT2TM1JbVIyGnulHYP0vMe9qgGzc63z9Xm/BPFfVbNH/wl3AulFnHuzJ7bsnFqswhZv7I4vCz1Bn9NWObPxz/k+7e436+S2dvncoM+38y44Xyd+E1/+jNS42+5rvTZ7kjtXuQbJknVDT5PnuZFORD1O2LrnnZPae8hDOJS+d+4vNQN8aFtsP2ER5Yvj2HomlXwZwIx0ZoKzDyUZAP4dongOZl5QGoPfLWirh0nq3TVtLgjVDaFzfQeIm0dBEbWzuKNgEacq+mkW6EOhaPzBTkQ7jSO6BZ2fe32iNvrYi082z93IxemTwK8iFce6MrMwJVo/VwQyle4txPn7OywRusaF98+qV4W7GSOcef46vZWkq4mXiH1LM3cGrqSU0TDYnJ6yycW0SftpOJdZ/M3mNz6GzJ2LIxFyMUeeAXkJ0UyZTRMzni/g1uKuCZ/oR81ZvfP1jA0oQX+ahVQeOVzYmVa7nYam6+UCUeTRpjdzuN1GsiuItcSJFw71D+x5GQvJd9yQJ2vfxpb2KCUd1sBEPaT+dwbBiLtr3Fyr61K9Tj0tR9lsC6FfhBRRGS2bsvGcGuF/6mDWDEkPZMPxxL2KJtvLWyL7ULGZCdYwCFkiKdBIUSJbnkGkocrSLCSN67j2TBjl7+7U3M3appNmII7acfJjZsEdveWknf2tXnDePqQmH/bGdiDi/PP7/M9883Wdm3jmn/FK+xeUYkru9up0LVLIFCIZGbrScX8qYRxQx2HErFTpFDdo5E7n1Q1clzoNxcAZDILfaqv9FoBFFALLj5rXV8+NUIfnnjW5YnDOTT1gXG3SFu/RYSc0WeuX8fSpk0KY5w4Xf2JwvY9/KnXTm6rypXLe72CmLiY7EKOfjIiy7VfTaQqrzVQeDCvv1595SuXan5EACoXPFwt0dxIJ44qxAOBjiYCKzyPoalUBYd1VAolUVyWCyTe4F9+5MR7Hqg8ys9H8K03hry2xhmEC78TnSyEbse/rQrLR8CABWuHu7YK2P4M86KkDgdDqUNLYjXiJwZhfOEn6ldYvRI4MyiPrT/8CD139tG4oLnHuZP5KMcNno0r8z+rcg8tcKhPh6ujtTxbEDNCrbzhgMLGT2wH93HhpNkhNx9s+gXnLemw6DgPnTr5I1b84Esib9Hnfpu+UNqKhq/uo5dS//Bnjf78dbMMP7971Bmvv8ea2u+zUfPFcwLK3EeNpPZPa+wYuIswkO/JDS7C8ENyhIpkr51GiMHB9N9yBLO2DqgSljB2KGj+XL7jQdBjpi+lamDR7LshIYadllsmvACPV/5hkOPdGdVDmL6VqaNHExw9yEsOWOLgyqBFWOHMvrL7dx4aABbpw5m5LITaGrYkbVpAi/0fIVvHhigwMHBPi/AK9x7MuZixI4alqwMJ6azddpIBgd3Z8iSM9g6qEhYMZaho79k+0NhpG+dyuCRyzihqYFd1iYmvNCTV7459GiN1n8Npv3zdbP+aZXvn93M+qeQup4VMe50rNhQGsq6I5i5YCR1d3/MmC++IzJyLYtClnGtzwrmDbfll6mjef9QYwY8+wfzRw1k5LLjWNucYNnIQYycu4/bJ8J4e3BfQvYYsbkawcSBw5i6JR1QUm/At+xY6c+BiUN4d1Y4G9d/Q8jkz9nj3BEftYE9Id3pNfpr/ih1ASojp9dMZPiQYF4a/A2J1vZwdCljBg1j0vqzlLpkjEaLh5sG7ai5fNH1MSy6ZCnG06ydOIIhwS8xeHEieSaOYdDwSaw/W9qHkjS4e7ih0Y5ibkhXTK6bpXAgrwkoehxjrhHsamBJE2A8vZaJI4YS/NJgFidqsOcYS18ZxPBJ6zhbapJFIb1fdK20xY/+ezByeu1ERgzN93WNPRxbxpjBw5m07myp+SsarRY3jZaRc76ga63Sp8GE1A2ExrjRweQKmAoc6rnj7OjA3fjfTfveI357owrIlW6lHJPiDp6U0u+ZK5MjZZ6KleJOZkjZj1PaU48gZYT2kBy9P5AOFPqA2f2tYyRXl1FSVPH6tvgDXI/GvX8PlJwavyv9bu4ja/8jH+CyHEG6+u2LklPbL6QES78klZslXTgaK8UcOiNlPrjJcqWbGdcls7dl+Q8u3bp4VIorOPa9VOn4H0elxOQr0vW7Vfnpq/vSiS3/luKul/6Bo6eZ+ye2Sj/EXTf9wTZJkiQhQ1rZ00ny+SBGyn7w5aX70tZX6kquoyKlO4W+UvVIH+CqLL2FuPfDIKmW17vS3vtmzvs/8gGucnH/hLT1hzjpmrEsowXp6vLuUk2/f0rHckore0/aHPKVyWteDael1Th5tKajR2llNLg07/QYXq/6b0OJc88BBE3fxLFMkc7uSsDI+aOnsO05jS6V/V6zpUgSSFRgrlmmKLmcOHaaHPvuOFg6Y6SuRUPfTjQsupGarpWxzJUaJ09fOnoW/K2lVXvzb8JUHja07Df0MZznyWHTsi+lvsirdKbHgCCmbzpOptg57+NYxvMcO2VLj8+6YP+Yx2fK1FsYuV0oPzYtKdcb3eRy8ngiBrtuOJbWVhiOc0b0NrmrGgYRMlWJ0m0Mi2bFMWFyCLXe7ovn1Ujm/RHE4lW9qfmEtRmPr+PLH45z9UgCitvn+dfkj/i1QWden9wPM2sryZhE4s5dPQpbO2zltBOZIihxG72QWXFvM2V6TSb0bUhG1Hz+CPwXK3vXqpbfqTAeX8+MjcdIP5wAf5/j6ykfscvdn7Ef9C2y/oWMJZSnrRC5uuU/KJ77BFPZGHIQ8T+HmsYjw/j5pTMc/vMCes/XWPVzY6roJZyKKWs9kpDWI4F5hD5pMU81NvScsY3fjM2pyItLMv8jqBszYuVPvHjmMH9e0OP5ahg/Na5VTb8bAurWI/ii9QjkdqEqsKHH9G3sNjbD1cwrueKVLYQm6XhrgJ3JIFMOIv5H0TroQ7IAAABmSURBVDj74P+STxmlVKiti7uIqW2PGzMaVGqs1U9aW1FUamvU6uIhftXXoY1nezpV6Rlknm40OPv4U1oTYNp3qZb3WR6m7yulOTueIAV1W/SZ/GTaVhvPdnQsZb/SLZh/fmp+//8DASCtyOfhqUMAAAAASUVORK5CYII=;" parent="1" vertex="1">
          <mxGeometry x="-275" y="191" width="430" height="29.27" as="geometry" />
        </mxCell>
        <mxCell id="DjFTVbm2SqqyD_zfQVQ5-4" value="" style="shape=image;verticalLabelPosition=bottom;labelBackgroundColor=default;verticalAlign=top;aspect=fixed;imageAspect=0;image=data:image/png,iVBORw0KGgoAAAANSUhEUgAAAsUAAABaCAYAAABQZCunAAAAAXNSR0IArs4c6QAAAARnQU1BAACxjwv8YQUAAAAJcEhZcwAADsMAAA7DAcdvqGQAAD6WSURBVHhe7d0HXBNJGwfgfxKaooIgNuxyFuwN9c6GvZwFKyqKvZ4dUVGw1xNR7/SwFzywYQHbZwE8Cyp4Vk6wgSigSJWWQJL320BQSugRo8xzv3gwG2AyO7v77uy7szzigGEYhmEYhmFKML78/wzDMAzDMAxTYrGgmGEYhmEYhinxWFDMMAzDMAzDlHgsKGYYhmEYhmFKPBYUMwzDMAzDMCUeC4oZhmEYhmGYEo8FxQzDMAzDMEyJx4JihmEYhmEYpsRjQTHDMAzDMAxT4rGgmGEYhmEYhinxWFD8HRCHeOB388ao0HA+biTLCxmGYRiGYRilYUGxSpPi4z9r0dekN5Zc1cFE+wX4WUO+iGEYhmEYhlEaHnHkXzMqRYooTxv0HPg7Hmh0xrpL7ljUWlu+LD8kiA78D28TBNDQ0oIGnyBOFkKUrIaK9eujkqb8bRDhw/MAfBRrQEtTHVLuPWoV66OOvpp8OcMwDMMwKkcqhpjUoCaQf88UGQuKVZQk6ACGtp+EMx8NYXH0Hg4NrVywYX1pNG4f3I4LTx/hzO4z+C/ZEJ3HjkSHGrVhOnkqulaR/zZJIM7ajMc0+38QVaE5ev3aC2ZTbDDepGzacoZhGIb5JsQIvrYTf5x+Ay19LcRHilB78DzM6GoIpQ/bSKLx9j0fhoY6+T7Wxtz5CzZ/BqPnprUYVFWJF97zWRfRpalouyoFAwe3QJVyWlDj8+RL5ARV0H54PzQqyHhaSScLihkVIwmhw4MrEh980h+4n95J5OWFEb6X+mnzSKPjZnollpdlEkN3N4+h4YuPk98neRHDMAzDfFNienVgODX6ZSldj5YXRd8ku07GNGT/K26psggp+Poumt+/ORmb2pFnnLw4T0K6NKUaaVQaQLtfK6k2wmC6vms+9W9uTKZ2npR7VSQUvLULaXBhnCyUy/7iUdl2a+iBSP52Jl/YSLEKSr5ng9YdNuAJ1cFvlx/jD9PS8iUFl+g2DnXMnGGw6BYerGuT+ew6/in+/v0QPnaej1ldq4BdgWEYhmFUgTTsb4xoZQPdff9hT58vQ50JFyah4biPWHH/NCZUL8robBz83R1h73AI9zS7YsrC+RjftRYKdLQVxSBGXA662kUcJY7zh7ujPRwO3YNm1ylYOH88utbKqyYiXJ09GMebTMGgGqWhocbH53FiaSjOrj+KWttPY35jdiNSQShxvJ9RDhHuOJ/AsxSCoHofDP658AExF17j4T/eiOQZoG2HJpkC4kT/41i54iL0J63HXBYQMwzDMCpDircn9uFCdGO0bZv52r92x05omXAZB48HQiIvKxBxOHyO2GJE27YY6/QJnTd64P7F7ZhZ0IBYRlO3SAGxONwHR2xHcJ9xLJw+dcZGj/u4uH1mPgJijjQSL/ltMHn8QPTt1QPdu3VDt9RXF9QMuoZP5tswhwXEBcaCYlUjfg7Pm28g5s75tFu0R8vPN8QVgiQIN25zOw5tE3RqpyUvFOHV6TWwPV0KlusWond1dkMdwzAMo0oS4H3zAURlDVAxa3yoYQCD8il4dMsbcfKifEkMgsfOOejTyhQLvcpi9EFv3Dm+GhZtKhYiP1mI8MBAfEiUyr8vmMQgD+yc0wetTBfCq+xoHPS+g+OrLdCmYgFqwi+LHtMno1mWH0n2+xMr7nbHyolGbLCrEFhQrGq4oPj5a9n5rwBVatdCqbTSwom6iZtPxFBv2gEddLjvk4PgZt0DA043gN2S/qjFTiIZhmEYVSMJRWBwAlCmLMpmuXcMPK5Mm4ek4Nd4J5aX5UIa44fT68ejUxszbHlpjMXu9+G11xoDGub/hrpM4n2xe9EKHLnsiDHtRuPwm/yOV0sR43ca68d3QhuzLXhpvBju972w13oAGuoUpiZlUbe+ITIdxpOfYNvyJ+i7ehRqsoi4UFhQrGpS4hCXevbJQ2ntMkVaQYneN+CTKIDRLx1QOfR/2GJji42HbsP/8ilcjpK/iWEYhmFUiSQGsXEEnkAAQdagGFwZd2CkuBjE5DpQK8HzQ+PQstFg7E/qiW1evji3ZSo610i/aloYIvj8eQhCyzWYb2ECg1A3uHolypflQvIch8a1RKPB+5HUcxu8fM9hy9TOKFJVspHg9V4bXG42B8PTZ5diCoy1nKqRUuqtozI8Xra9QQEk49ENb0RCD0aC61i5Pxq9V+7FZst6EIS7w/HvfORjSYJxYb0N9j9ij9FjGIZhiosUkhwPULzUG8pILM7jGCZAtQ7DMbpPVQSdc4bTqVt4K5IvKiyhF1zft8fIBmqI97yA63F10aRRPq7nCqqhw/DR6FM1COecnXDq1lsuvFayuCvYuDUa3YYbK3+6uhKEBcU/Ki6gvXH7NSTquihVsyeWLTeHsbYmTKZMRPtSCbixdx8e5BXrSsLxMjARGpqsmzAMwzDFhK8OTQ0eSMIFvtnmx5JAIuVCY3VNqMtLclK6bl8s3OsJnzNWqO+/CQNad8Wk390RUKBk5AzUW2LWoiEw4Efjwt/uiGw2HCOb5ycELY26fRdir6cPzljVh/+mAWjddRJ+dw8oWF50jqR4f/IvuPLa4JfaLG+iKFi086OKuoEbj8VQbzsV6yc2R/qjOAR1xmJaP31I/A7B8Uoem6NGa8zevRUW3FkxwzAMwxQLfkVU0OOCYpEQSfKiz0gEUTKBV14fFfIZ/2nV6IypDufg62GPbvHOGNe+HcztnOH7MR9JyRkJDGBYRRPS92fw96UEmJiPRMEOj1qo0XkqHM75wsO+G+Kdx6F9O3PYOfuioFXJRPoeZ497IN6wDuqyw3WRsKD4B5V45x/4JqqhfsdOqJ5xx8E3gNmMkajDC4Wr43GE5pCTJQy9h9OHj8M7tChbKsMwDMMUEL8SGjWoBF70R3wUysvSST4iPArQrdcQ1Qo4KCowaIGRK13gfecwxuh4wbqbCX6d5wiv4Kx/JDdSvHN1hoekI0aOqA2BJAbRsQWdhUIAgxYjsdLFG3cOj4GOlzW6mfyKeY5eKFBV0sVdx9U7iShVqQp0WVRXJKz5fkiyfOI7iOBVQvuOmecnltHqMAWWLdQRe2UX9v+XPeiVBB7Dht2vUJXOwnzMDgTm9+ZahmEYhikyTZj07oqKkncICs58jJK8C8RboQ469+pY8HmF05Wph34LdsPDxx2LjF9ii5kJTCdtgtuzWC7kzYMkECeO3YJ691EYXIWPxKv22Jyfm+1yUKZePyzY7QEf90UwfrkFZiammLTJDc8KEGgn//cvnsYDpbRLs6CuiFj7/Ygkr+B5/RUkpVvjFxMFEx2rNcToESZQE/2LvQ4XEJlp20vGvRP+aDp7CAQvniJRRw9lWIoSwzAMU4x0+v6Gac1e4/wZf3wJiyV45XYB/o2nY8EgPXlZEWgaouPkzXC75wmHHkk4sWQjLnPBZa5ED+D7RIAO/X9FRbyF6zV19OheRr6w8DQNO2LyZjfc83RAj6QTWLLxMvKqSjrp+/f4KOVBTV3jy1PtmEJhQfEPRBp6FrYWwzG49wj86V8KZQWPsWuiOcauvvgl8JU9/nHZcFjsfAKNMqURdWIGuvcdhz/upd91p4H21ssxuPRNHDwWgV6j+8NAvoRhGIZhioVGayw+5ICG537DHOeHCI/7iMfHF2LacUNsPGCDdkV52GtWAn00H7EcTmfWoXde8a1mG/TuXhVx/u74y84eYb1nolPmh+4ViUC/OUYsd8KZdb2R31BbmixCMvGgpaXJguIi4hFH/jWjCqJ3oGul3+CZIkBDKx88/r3FN5leJfaMJRotKI0Dj7ehUUQEqtasKl/CMAzDMMVEGIK7F87j9qt4lK7dHn1/bY/qSp3ftxAk0Xj14CVSajZDAwMVeApWwjO4HfFG2T6WMK3BLu0WBQuKVc2HOahZZTuCubWi0+8iws/1zvzEmmIRD9fRRrCrdgb/Wodg9U59rLHtIl/GMAzDMAzz42FBsaqJPYD+lSbgnEgdLZffx90V2W+U+/qS4W3XAVahQ9FbD2g1zwp92RNyGIZhmO+GGI8chmLcngAI8xXl8CDQ64NNF+zRV0depCziR3AYOg57AoSfH86VK54Aen024YJ9Xyi7KkzuWFCsalQiKJZJRnRYLDSrGBT+Dl+GYRiGYZjvBBv+Y3KggfIsIGYYhmEYpoRgQTHDMAzDMAxT4rGgmGEYhmEYhinxWFDMMAzDMAzDlHgsKGYYhmEYhmFKPBYUMwzDMAzDMCWe6k/JJo7E62dhEKprQVODB0myEKJkdVSsXw+VNAFpdBD83iVAvVQpaPDESBYlI5mvD6MGVeQzJwjxPuAFIqQa0NIQQCISQaNyA9TWU82nvkjDHdGn+nRc5j6jydpHuG3TEIWraTLCX/rjvVANmlpa0OATUlLbDtCt0wjVy0gQFfgMYSJZu6hx7ZzMLUsBlauBhjV0Mp0tSWPe4L+3CVArpQl1iQhJUh3UamiY70dQMgzDMAzDqDqVHyn+Z/92bLUegObG9dCwoyXW7j6O2zG6MEgNiL1xcNt22A5rDeOffkK7kSux+5gXwstWlAfEErw8vQE2U39Fq8Yt0Wvyauz3TUElFQ2IZSgqCrGy0xSeGgwqVypkQMyRfsSTy6dxYv9SDGpqhLoNOmPypgM45noB90PEskgXz6654uCqkWj9U1381GoQrHc449y/H7JNLp4QcAW7F/RDs3oN0WHUEmw95oNwiXwhwzAMw3wVQry+4ADbxUux2HoB5s6cizUnniBGKl+sTJJovA2JRUF+dcydvzDDYgnOhCq5QoWoS3LwedgNnYrDOdQl2cceFiNmY8OBs7h2ywe+dzzhdmgzrCbYwDXsazTod0o2UqzqhB4zqZZAQDWnXyWhvOwLEd2xbkhq/IpkeTZJXpaZ8MZiMpt/hSIk8gIVlnR+IlXhc3GpemOy8UmRlxZBxH76tQyPNDpupldieVlGkXuprxaP1FuvJj9Fy+Wij1tS+wknKTiX9zAMwzCMcojo8Y4pNMPRhyLTjzuiYLq8rCf9PPUMhSnreC4Mpuu75lP/5sZkaudJcfLivAnp0pRqpFFpAO1+raQDYwHrIgm5RFsWTKOJlhY0sKUB8dXb0jp/xXURXpxMhoLUMS/5i0dqBu1o9snXpIRI44fxXeQUC/T0UZ4vRWxMNLIPUPKhpqHOrd54xH4Sy8sykL6Bi6s6Zth1h77Kf1ox/G7fQwR30qZWsyt6NSn6s+wSb9+Ab6Ia6nXsjBqKhp21a6JGRT6koUF4o6D5UiXexTb36ti4bQiqq+4gO8MwDPODkIYfw5rLDWE9uTU+X9zVqI4ey39H93/XY5dfTgesfIrzh/vvk9G11a9Y/7QO5p72gcfKLgVIC9REr+1P8OHVaUyuXcQDYyHrwtdvicG/rcC2fQexaVjdPK4sq6HBMDusWDQXs+cuxtpd7ngYcAvbhtT+Rk/NVU3fRVDM54JiXR4hKToKSfKydNJwdzhfDIeUCyhjIqOzXW6IurALT02mo+v38ABx8SOccfeHmKeBpqPH42dNeXmhJePRDW9E8CqifcfGiju+Wg3UMuSC4shgvFF4TUqEh9t3IHHsAnRkScQMwzBMMRD7++Lh61CEJssL0qlVgWGFCISGFi6HTxzugyO2I9C27Vg4feqMjR73cXH7THStVYjnt2rqQle78GFUkeuiaYCatSpBO18xOR8V246H7QYHbHNYD5sp/dCo/HcRAhar7yQo1oOuGg/SmEhEZNoOEnB7jzfqjTOFDhc0x0RFZg6KhXfgeMUQk4dX+S4+aMylv3DYLwV8w5FYNqtp0c/eJMG4cesVJGVM0KmtlrwwC4EhalXjNkBJCIKCsp95i//7C1s/DIN1V115CcMwDMN8XYLKhqjwfDtGm2/CP++/HPilIedx6UMX9DMp2KhRYpAHds7pg1amC+FVdjQOet/B8dUWaFOxMEdaIcIDA/EhsXC5uMqtC6NM38dpgqA89HR4oOgoRGUIisV++3FG2wKjG1eALk+KmMioDOkVEgTsPwqMmoj638Ml/wRvbLI9grf8OhizbT0GKiPXI+YGbj4WQ6N5J3TMcaRcHTVqVoFAEoqg4CxBseQl9ti/RL9F/b6D1BOGYRjmRyEwGoO5wyrhrdtidG/eETMPPkRUmAdWzjqNxr+vx6/l5W/MFRcX+J3G+vGd0MZsC14aL4b7fS/stR6AhjqFPKjF+2L3ohU4ctkRY9qNxuE3+R2x/gp1KShpDHyct2DDhnVYs3IlNh68ibAiZqH8aL6PUIevxwXFfEhjuaA4/cRM+hYuTrHoP6kptGQjyXyuw0V9CYqlYSewL7QHpuc0QppP0rALWDPJEpZjx2Jsfl+WE7DAyU/+G/JB+gFu88bB/okOuqxyxvbByhnZluUT+ySqoX6HjjDM8ReqoVYtQ/ApAe+CwjKdVAQd3ogHna0xpPL30U0YhmGYHwS/CoY5XsTBqa1RLuIOdk5oixrNbCCefxiruhrkfYyUPMehcS3RaPB+JPXcBi/fc9gytTNqFCkkEMHnz0MQWq7BfAsTGIS6wdUrUb4sF1+lLgUlwfMzBxFgPB7Wi22wbNkEGF2fiPZmO/FUJH8L872MFHNBsS4P9IkLiuVnNdH/24sAk8mpea58ff3U9IkvOcdx8HL0ReMpfaD4ZFKC4AvrYbP/EbKmK2UVEa2LTmMnYMLEiZiYr9ckTJm3EqvGNJL/hjyIg3F2bl9Y/i3Brw4XcHZxW5SVLyqa9HziSmiXUz5xKj7K16yReiPju6A3SD9plIaewMabbbBodI0snST/bZc7CcLvHcWOrQ7YvHEtNh+6hRC2YTIMwzCfEXjljDFo9m/ob6SOxI/3sKF/F0xyegah/B05ElRDh+Gj0adqEM45O+HUrbdcSFtEQi+4vm+PkQ3UEO95Adfj6qJJo1Lyhbn4GnUpIPUW0+B4aCPGNi+fdkwXVMcg28mofmURfvvTP/U9DEc+C4WKi6DdvTUJGl1o6xsJUdJd2mS9h16mzzwSf4TMtHmk3m4dyWYjET3YTHO2PsllmhER+WybTHOcnn3zqUgCt5lSGZ2fye5mJCl1xjjxC9r4szrxdAfT39HyshykPF5BLdV5VKrfPoqSFUg+0KlZlrTtP0Wto4y2k1DI8UU0d+8T+ZQzIgp2m029LA6TbPUyDMMwJVzMTVrVowv95h6admyM8yOXBV3IUINHPE1jmu+V38nTkuiNlyPN7decGptOpE1u/vRJvqTAxOH0LlQ2MWwUHTM3IK02q+lpgQ6ESqxLJmIKWN+O1HOZkk0h4UWabCgg9ZbL5QXMd3JdXBvly5cCj2IQFZWM54dcITAfg7rpucKynONy8pzjlEA4OSViyKTcRkc10Hr2bmy1aFD0m9mKqGrfqRhZ8z/snGeLo8/ycRkmv9LziVt0Qody8rIcqNWohWrqgDjkTeq0bNH/24hT1eZhWkNFraOEtpN+wJmDPjA0bSifckYD1bl26BhyEbfzPP1nGIZhfmxiPHSYC6da1lj3qzydsIwxzDdfhc+5pehYLgD7tp1CZOp786KFGp2nwuGcLzzsuyHeeRzatzOHnbMvPhY0n1ZgAMMqmpC+P4O/LyXAxHwkGhToQKjEuhSEOBieB3bhrF+cvECOpw3t0jyIXwfIC5jvJCjmQV9PF3xpND4GuOLwh56Y2CLDnaeynGNdWc5xJF6778WrDlPxi7Z8WVbCUNw7fRjHvUM/pwrk5tKG6Zg4cQImTMjvayImL3bGs3x2cA2jEXC87IJRooMY130I7H2ydNpCSs8nbtChE6rmtZa1aqJGJT4k74IQFOWJTX/rYNbsZlyomkUB2y5H/DKoWuEZVvcfgy1eIalpGAn/uuJupW5oV7AbihmGYZgfjfQdPLyC0apn5yzphAJU6bESh5d2gjToFd4V6EAkgEGLkVjp4o07h8dAx8sa3Ux+xTxHLwQXaDBGineuzvCQdMTIEbUhkMQgOrags1Aoqy75I7q2FmMnT4f5Amd8yFhVSkFyMoGnVYjp6H5Q30lQLICeviwojoCH40M0mWyKTJMpyHKOZbNTRN7Ejuu1MWlARcUfTBKIYxt241VVwlnzMdgRmPddo837jcTo0aML9hryM6oX4OyRX6k3fndejQ6Jl7HIbAIOB+X3btacpOcTV0a7jsZ5j+iq1Uybqzj2Oc7a7oZg6nyYZL0BoBBtl7Oy6L9mJ8Zpc5+3e2O07DMYEw5WxSrHiaj1PcwUwjAMw3xFpaBdChAmKIoQ+ahUtzaq1KqDaoW8XFmmXj8s2O0BH/dFMH65BWYmppi0yQ3P8hPccsfCE8duQb37KAyuwkfiVXtszs/NdjkoUl3ySaBnAKM2Flgxrz8MMgZHie8QGkUo176zvID5TnKKJRS8tQtp8MpRly3+lD1jJi3nmKfVipb7Zn8QdDrR7Y20wjWSRD5LqWkFMzocLl+gEoTku7wVafH4pNv9DwooQFpQNuJntK6tOvHKmZFTHvnEaRLoxEhd4vHUqd7My6ToR5TddpIIb9o5fyLNmjWG2lZSJ345Yxr5178FeMQmwzAM82OSUOjfw8mow2ryTZAXpZOEkMvYrjT7coy8oOjEEQ/o6AoLGrjkYt7HoIQTZK5bhvrvj+TqEkyHF64kz3j5MiUoUF0+S6EnK1uRunpLWvFYQZJzyhPaPHExXYnIeNOOmF7v7EW65Uxoxb0keRnDk/0jj49VWvyRwai+uQEu3lmHdtmmMRHi5KjqsNF1hs/OHplHkbMRwuO3JhgTswF+R4ZAlR5JIQ0/gmHGljgVUwkjXR7hyLB8TDuTgfjZISxYfQFvw5/hjk8Q4qEP486tUNvIDCt/H416OY7CinFvSXN0cmmL4/f3YECOkxIrbruY/9nB8vfb4PYL8pLseHwdmC47gqWdSwPJj7BxgDWEq1yx3KQMpJE+OLB0JhYdjIPllQew71is89QwDMMwqkYahVtbpmCBWxkMmDoSXY31kBR4F+eOeSC53xr8PtYY3+RIIXmDQ+Y9cbCODYarP0BcV1tYddX/Npfd4z2w8beDeCqMhr/3TbyIBXR+6oifG+pCk4sl/ljc7XP6SXKAE6xW3ELVgSNgWisZAZcPYNvf4eix5RDW9qsOdpE2zXcTFEsCPfC/2Dbo21zRhGVShN64hHfGvWGS11MmYs/AstEClD7wGNsaRSCiQk1UzZY8+63E49SYOhh2JAJapg54cmUO6hRTTxU+PYsz8R0wvF0uG7eS2i757iK0XVETF8/PwJcpkGNxcUobrKt7Dl6L6rENlGEYhkHyhye4ccMX/71NhE7dZmjXsT3qlf/GRwhJNF49eImUms3QwEBlAoi8JQbj9rkLuBMCVDVug186tEL1nO6/KqG+m6BYWeJdR8PIrhrO/GuNkNU7oW9jiy4qlGMedXAgak5wQ4KmKbYGXMXsGt/k/FMhZbWdJGg7+g4Lhq3XZnT4vEEm4sZCMxztfgo7erGtlGEYhmGY4lXiguJkbzt0sArF0N56QKt5sOqrnKfHKYv4/jK0bL8WTyTlYX7sLVyGqk6AqLy2E+LpvllYekUfvUf0QpPyn/DsxjX4aQ+F7dxO7JHSDMMwTNGIH8Fh6DjsCRAiX0EOTwC9Pptwwb5vHimYhaBKdWFyVeKCYpnk6DDEalaBgQrOQiIN/RM9as+CR7I6fvndH9et6qhUKoFS2y7hLR7d90OIWA/1mjWHkf53dBmKYRiGYZgfSokck9Mor5oBsQxfuzRK8dK+TkpIyN9ZZTFSattpV0ezTr3Rt6sJC4gZhmEYhvmm2IVqlcPj/pMrcWP4DMMwDMMw3wYLihmGYRiGYZgSjwXFDMMwDMMwTInHgmKGYRiGYRimxGNBMVMgkhAPuF5/L//u+xbjfRoXA5Pl3zEl2Y/Ur/MU443TFwPBej7DMExmJXJKNpUWewD9K03AOZE6Wi6/j7srmkBNvqhoEvHcfScO3oqBRpWfMXZ6X9Qp4IQP0reumLfoMcz+XI4uetz5lDgSr5+FQaiuBU0NHiTJQoiS1VGxfj1U0uTeHx0Ev3cJUC9VCho8MZJFyUjm68OoQRWkTWAhxPuAF4iQakBLQwCJSASNyg1QW6+YJqFL8IXDb/ugv/QPjDVSTisXnBiRr58hTKgOLU0N8CTJEHLtpF6xPuqlNSKC/N4hQb0USnFtLE4WITmZD32jBqginwVE+D4ALyKk0NDSgEAigkijMhrU1ishTwVk/brgEuDr8Bv26S/FH2ONlLR/KThx5Gs8CxNCXUuTa0cJkoVc31aviPr1KkETUkQH+eFdgjpKleK2C3Eytw6Swdc3QoMvHR8BLyIg1dCChkACkUgDlRvUhso0M8Mw3x02UlwiSBB8ZAL620tgbmGE17snYOaBMO6wUwCih7CfeQQ1l9qmBQ4caZQfrp7cjQV9jfGTUUOYTtqEA66eCIiV/WYpYv094HpgKQY1MULdeh0wdu1+uF71Q7Qk9ce5ar2Dt4sDfuvdFPWb9sL0jYdxI1gkX1gMtFtj9or2uDp3FW7Fy8uKmzQKfldPYveCvjD+yQgNTSdh0wFXeAbEpq4faaw/PFwPYOmgJjCqWw8dxq7Ffter8PvSiHjn7cIF973RtH5T9Jq+EYdvBKMYW/EbYv26cLTRevYKtL86F6u+XcdHlN9VnNy9AH2Nf4JRQ1NM2nQArp4BSGvmWPh7uOLA0kFoYlQX9TqMxdr9rrjqF82t9TSSd95w4YL73k3ro2mv6dh4+AZUqpmLW8wd/DXDAkvOhMoLfiDJwThvNxRTD4fmun2Lw27h0IblsFtui6VLFmKJwzW8Te8wSiNB9NuQtH6aX19t3RSkLmKEXt8Bq3HmGDp4APoPHou5m07jv1j54nTJPrC3GIHZGw7g7LVb8PG9A0+3Q9hsNQE2rhn3r8nwsbfAiNkbcODsNdzy8cUdTzcc2myFCTauCMtSJ8mHf7Bj4XTMmLMAC+fNxuI9dxFdkDYsLrKRYkaFxOynXzVlk7GpU8vljylFXlwkIm+ybliKft4YQO/2DSQD/Va06FqcfGF+iClgWx/qtOweieQlXwjJY2YtEghq0vSrQnlZBqI73N9WI35FSzqbJC/LREg3FpvR/CsRJJGXFC8x+dv3oi4r/+VqUgTiJEoowi8QesykWgIB1Zx+VUE9RHTHuiGp8SuSpeJGJOGNxWQ2/wpFfJtGzCcxJRWlkbJi/bpIxP721KvLSvq3aB2/aOtU6EEzawlIUHM6KW5ma2qoxqeKlmdJcTPfoMVm8+mKanf8vBVx/yEjvDSFqmlUogG7X8tLvnOSELq0ZQFNm2hJFgNbkgFfndqu8+d6nCISivxnJXVt0pWWuAWm7UOTntHhsW2o3/YXOfxMQQkp+Poumt+/ORmb2pFnAXY1yl83Ba2LmF47TSazuS7k90n2vYQ+PTlAFvW0qGyTGXQmNMP2I7xIkw0FsgyCzy+emgG1m32SXmcKSIR0cbIhCTK8Dzw1Mmg3m05mfiPF3dlEves2p2luoWnrQhxCpye2oOaTT9Ab5awcpWFBsaoRXacNo8xokNkwsj75XikH1BSfpdREowZNv1LIvW7UKbKs35/2ZNxwPkuhh3YtSJ2nSyNPJMjLMkjxpWVN1YlXehA5KdhwJUEHaK7tFYqRf/9NRB2n0fUG0r6Qwrd2/N8jqIPdw0KfxKQ8tKMW6jzSHXmCsrdiCvkua8q1cWkapLgR6cBcW7ryTRsxH+L/phEd7OihUs70WL8uuig6ProeDdwXUvj9TFHXacpDsmvBtaPuSFLczMuoKbddlB7kRNmbWUJBB+aSrcp3/LwVdf+RRkjR0fFKOWaoBiGFBwXS+3gxiQPWUzv1nINiceB+GlTFkIY7h33+/ELP36i2gE+VJ7grPqHKt0/0zG0TTTJtRE17z6I/rwUq2EfnRVnrppB1iTpJkwato8dZOliM+0SqLhBQtQlu8hIOFxRP72ZOdisW0dzZc2nx2l107mmUgrpzQfH0bmRut4IWzZ1NcxevpV3nnlJU1jfGedCc+hpUfrATRciLZCRvtlKXUoY09lSUvEQ1sPQJVSMKxO1TZ3Dm9Bl4/BeRevpVNFJE3vfFS35DNG+qLi8rCCnenz4IT+OhMKuiqLvwoaevCx4lIToqSV6WTopwd2dcDJcC4hhEZrtWEoULu57CZHrXb/t89/J9MbTdQxxyfv350mxBSZOTkZRc+Gu3fD196PIISdFRyNaK4e5wvhjOtaYYMZHRGS5fpYm6sAtPTaajq6o/JF+ajOSkZCWldrB+XXTl0XdoOzw85IzXhe/4RVunfD3o6/JASdHI3szhcHe+iLRmjsx+qTXqAnY9NcF0le/4eSvq/iONJnR1tX+gnEhNGNSshUraeSWJx+LCKluc1x6KmYMrf/78mh0Ww+mIE1xse0JLXlYg4nD4HLHFiLZtMdbpEzpv9MD9i9sxs2st+b0DBVHEdVPEuojuXcYld1uYDtqNwAzbuo5pT/xcVoqw/7nJS9LwK7bFeNsNcNjmgPU2U9CvUXnFdedXRNvxttjgsA0O620wpV8jlM/yxvgr++H8glC7SdNM+0N+5RZoZhgOt0NnU7dxVfHjbD8/CqkUUvm9j1KJVAlBcQqePPwP4hqN0Ei3MKs7EhdO34KRqSl3CFWECx70dKHGk3IBW0TmoDLhNvZ418M4Ux0uuIhBVGTmni+844grhpMxXGFQUpy00alrczx1O4s3Ss8/yx++nh501XiQcgf/iMyNiNt7vFFvnCl0uKA5Jioyc1AsvAPHK4aYPLxKCduYWb9WBu1OXdH8qRvOfruODz1dNfCk3MlF5o7PNfMeeNcbB1MdLmiOiULmZhbijuMVGE4eju+gmb86YXggAj8kZjthLhEiz2L/qfcoZ9IRrTTlZTJqhvjFfBS61CrgnbeJQfDYOQd9WplioVdZjD7ojTvHV8OiTcVC3ZRapHWjpLoIqhmhtjYffG5b+fzEXBlBaWhrcced+Dh5gbJJ8OHFa8RwH16rtHaWv63PnRADcb63cD9FXqYC2O7kh5UMnx2TYT58CBaeDAU/+R62WIzAyKmOuF+QuZiEd3HzgT6aNq+UY2cRlNdLDdiio6IyBA9i+O0/A22L0WhcQTftoBeV4aAnCcD+o8CoifVVYpaEcs2boZbfLdz+JC8oboLy0JMd/KOjkLGZxH77cUbbAqMbV4BuaoCWsY0lCEhrRNQvMXfcs36tVOWao1ktP9z6dh0f5fVkJxfRiMrc8bH/jDYsRjdGBd20k8XMzbwfRzEKE0tOx89BPHx3L8KKI5fhOKYdRh9+k6GvlgzCO9dxN46PqrWq4M1ZB6xevRbr1iyF1bI9uP0h/60hjfHD6fXj0amNGba8NMZi9/vw2muNAQ11ChkoFX7dKLsuao0WwiM0Cm/dpqBWhk1G8vohnkQSNIxbyEvScccaH2ds2bCBa8uVWLnxIG6GieXLMpPG+MB5ywZsWLcGK1duxMGbYdxeMh0PWlqaqcEwUdZPzwOPWyD5+AovVGiomAXFPywNtJm5B0cPz0ArdQGMx+7AsePH4LJrGloV4MRZ8u4/BMRWQ926OZ+XykY5dfhSxHLBQ3rXlr51gVNsf0xqqpU64sbngocvBz0pwk7sQ2iP6WhbqOtayqdWqw6qiV/i2SvFG/5XJxsx0+FDGssFxV8aES5Oseg/qSm0ZCPJXBvHZAjQpGEnsC+0B6arSiMWC9avlUqtFupUE+Pls1fyguImG5HnDvTSWK4dP7cy3ro4Ibb/JDTVko0kc9tFTIaTRWkYTuwLRY/pbQt3WfwHIvL5E4eEllgz3wImBqFwc/VConxZySCbuu9N6lUEteencZo3FDa2S2GzbDkmVTmN4Z0m4cTb9H6VEwmeHxqHlo0GY39ST2zz8sW5LVPRuUbRelfh1s3XqYuMmnYZZBxI504ncPeAMx5QTYyyniAvSyN5fgYHA4wx3nox15bLMMHoOia2N8POp1lSfCTPceZgAIzHW2OxzTIsm2CE6xPbw2znU3lKFR8GbU0gm/E0Pi4u85XvlGC8CeXWDX1CTIGm8vi6WFD8g5O8eYSnkWVh3Cz7fKTx/m7Yunwx5s+agyWbT+DR54PSF+J3b/FeTR8GuVyiFsgCNh7hExc8pIWU0fjf3gCYTO6IMlwX09eXjQRlyM2M84Kjb2NM6aP4wrUk+ALW2+zHoyI9XSAe/m5bsXzxfMyaswSbTzz6EmwqolkBBmU/4F3INwqKBbKDP4/bP3AHf3kVov+3FwEmk9GxDLeh6uunjlp+yTmOg5ejLxpP6aP48r8kGBfW22B/ERpR7LsJYy2XwX7HLuzZuxd701/7XHAzJOtZf/HKrV+nEgXjiv0auDxXXM/vt1+nEQVfgf0aF2T7eOLHOLxiHfaevoqbt2/Cw90JDmsP436O6aqaqGBQFh/ehci/L26C1JMLHndgjPrS8bE3wAST0zo+9GVXUDLkHMd5OcK38RQobmYJgi+sh83+R0p4OIkIwVfsscbleQ4jfIl4/r892LxuAzZt2oLD3rK8/+IkhJfre7Qf2QBq8Z64cD0OdZs0Qin50pKB2z4/xXP/ivHsnR7M+lWXX6HRQIOJ8/Br0t+Ys9g1S+pNVgJU6zAco/tURdA5ZziduoW3RU3vLvS6+Rp1USz56XYs3vMebZf9DYdBBvJSjnoLTHM8hI1jm8vzgwWoPsgWk6tfwaLf/oT/541BHS2mOeLQxrFoLk8kFlQfBNvJ1XFl0W/4U/5GjdZTMKenDgJvc58lw4YUf+MmHqVu8lJIFG9g3wQLin9wSY8fIQAN0KxZ5nPEWK81sHIB+s5fiy32i9Hj0x/o2cwMu/wzB4UUn4gkDS1o5tJTBBX0ocvndkuy0Rxu5yO8txde1cdjYCXZD/Ghyx301D/nZibj4W436I0bhRo5/E5J+EsEJmrk+jdzFwuvNVZwQV/MX7sF9ot74NMfPdHMbBeyfLwveKWhpZGE+IRc9p7S97iwdhIsLcdi7NjMr6n7/8WbC6sxPkv52LGWmGDlhP9y+rvpBBWgzwVoJJaNPKY2IvZ6Vcf4gWmX9/m6XICm/iXnOPnhbrjpjcOonBsRLwMToVH4RsSnxzfgfnYvHNavwepVq7BK9lq+EPM338AnjUzZYRlI8f7CWkyytMzSDtxr6n78++YCVo/PUs69LCdYwSnPRvoip34tjfTEdisrLFphhQW2B+Edpnhv+332aykiPbfDymoRVlgtgO1Bb2T7eOI3uL53FWYM6YlOXfph/JpLSPm5J1pkbqYMeCitpYGk+AT594p8zXUqQAV9XfBJnHoVRMoFE/f2eqH6+IFIa2Zd7mRR/UvOcfJD7HbTw7hRNXI4eEkQ/jIQiRqahT+4SSPhud0KVotWwGqBLQ56h2UPipOfw2XmKKx70RSW1osxv58ARyYtgluuzajs/Yc6Ws5ahCEGfERf+Bvukc0wfGTzb/Ywlm+D67/apbl/uWCybQcYZcymUTfCT7WA9+ddcDHrXLxZlK7bFwv3esLnjBXq+2/CgNZdMel3dwQUOtW28OtG+XVRINoLy8btBH/eGbjZ/pz5hmB+JTRrXTvzqLLAEI0bVkDSbWcc9UvvjHxUatYatTO/EYaNG6JC0m04H/WTF9XBpH1O+E2yBzPWX0NwQiLC7h6CvU9N9GjArTCeLvTlc8SrBPksFIyqUOo8xSnku7QJaVSbQpcyzVoVRYfMjOgX26sULS8h4XWa+5M61Zh+hTK+VXhhEhnqDqejuc37knSCRurySL25HT1ICiBHa/tMc58mnZ9IVfhqVN/qNiW93kvzV/1D8fJlX0XUITIz+oVsr37+dNzHm0s/qecyfZfwKk2vqUvDcv2gKRT2+Dpdu3aVrl7N/HJf0onqjXakS1nKr169Rp73AhVMJ5VVEp0YqUs89eZk9yCJAhytyT5zI9LEKnxSq29Ft5Ne0975q+ifr9qIIrplN5t2v8swv44knC4unUpb/s19EqCUsMd0/dq1LO3AvdyXUKd6o8nxUpZy7nXN8x4F5t1Icjn16wwSXGioTl2a5ZV9BmKZ77JfZ5DgMpR06s6ibB8vyZ1sbM5TTEwkfVL80bMQ0tXpNUl32FH594p9zXWadGIk6fLUqbndA0oKcCRr+4xzhifR+YlViK9Wn6xuJ9HrvfNp1dft+BkkkMtQHao7yyvLPNYp9HDtz1R7hDOFyzcPsb8zWc/Zlcecz19p/yEJo/0DdKl0J3t6qWJzvipLblOyxXHbQjmu/7Re9TTzMq5ddnTTIKi3pOWPCnYkFYf/S8525tSuUVsaYfs3+YQX8kishHWjtLqkS3pCfw5qS2Z//KugX6XQG4/95HjmKaVOZ/yZiP6Z+xOp8XTJ/HjaTjPljQftdzxDTzO/kUT/cMdaNR7pmh+Xl8hJounFjdO0z2Ez7XT9lyKEj2lFK3US1JpJHrluN8WLBcWqRqlBcSTt769NWt13UlimuQOT6PbGYTRkteeXeVTFfrS6tTrpDD+Wad5DkfdCaqDdh/ZEygsUyTAB/9EjS2nl1czzhsp+h2wC/srjj9BxmyV06kPWiQzTJVHI3VN06NhtCinKB0+6TRuHDaHVnl/qIfZbTa3VdWj4sRyioKTTNKZiNZp8sXBb56cDZtRq8d0irK8MD4s4eoSWrryaeY5bkTctlD0sovJ4OnLchpac+pDjnJdJIXfp1KFjdLtIjSimkKd+nw/6su9fHZ5D84++UThPaL58OkBmrRbT3SLu03Pu1xnkERR/l/06g9yD4otcb5KQMCEpH+sqiU6PqUjVJl+Uf19ASlinXx5cc5SOLF1JmZtZRN4LZQ+uqUzjjxwnmyWnKOdmDqG7pw7RsdshRdxvpsshKE66TFNr6JDZ4WhKiQuhl6/DuVYsmqLsPyRv/qTuZcpSr7/ecWtdTNFRmfvpjyC3oFj8dBW3b1enxkvuZW4/yTvaZioLin+hTYWNSOMC6NzmyWTapAX1m/sXeb4p2JpW6ropYl1Sid/Q8Wn9aerRVxn6dAo9PnYs7UvhJZpSTUA8rV7k+D7jhiakazNqkoDbDieck/1dIV2aUo0EPC3q5Zj5eQrCazOoZur80OfkJTmIP07m5dWo6rizWQLwb0uFxqwZpUt+iof/paBG06bIfHVCC+2tj+Pksi6fL5tIXl3C1QAD9B3SJdPNK2o1a8KQF4WPHxVfhk4lkM01yoc0wgOOD5tgsmnmeUNluZmyfNjImztwvfYkDKioqNtJEHhsA3a/qgo6a44xOwKzX7LML632sD5+Esu6fP50eHXpKgIM+mJIF8U3LEg/vcf7REPUrv2tLj4KUufF5Usj4OH4EE0mm2a+pCXLOZblVkbexI7rtTFpQEWFl4clgcewYfcrVKWzMB+zI9OclAUjQNVGxjCQ/xHJ891Y/6gbbIbV4JZ8Yzn26/z7Lvt1PsU//BsrVjlg3+E9WDvVArMOPkaOD3OWfsL794kwrF1bXlD8BLI5uvlSRHg44mGTycjczLKcY1nudiRu7riO2pMGQHEzB+LYht14VZVw1nwMdhS+4+dJ/OIWfD6UBd9/N9btvYp/vZ1hPWwE7M4Hf/V1mx3Xv04cwy317hg1uAr4iVdhv9lLvqxkENTvi94NgdCgN5nny5ZGIfoTQa1OO/xSvZB7rTL10G/Bbnj4uGOR8UtsMTNJfey727O0x/DnTsnrpkh14XDt4blmBe71+hM7RtTB5/uSJW/heSMg7Wtun2dg1AYWK+ahf/rOP1Ui3oVGgcq1R2cT2U9y26WBEdpYrMC8/gaZjkWJ70IRReXQvrNJWoE0FGesB2GQlSuCM2wgCdcv45bQGJbTeqGsvEwVFPKQwnw1AjWo8dPyNSWS/OdYKiL9+AhP3mnCuFmjLxuAIqIn2D7zDyRM2YetQzMHW3z9lmhR/S0CAnKZSDB1rlGuzoIqGDBpaLZ5QwX6soMe9/9yPTF+TB3FQVXyPZzwb4rZQwR48TQROnpllBZ8iZ5sx8w/EjBl31YMVXhE5Q50/v54o98MLTPOV1Os0ubFleXGVRkwCUOzN2JqgMY1InqOH4M6ihsR9074o+nsIRC8eIpEHT2UUcbHkX6E65pTqDSiD/QVN1+xyne/zsWP0K8VUm+CEdbLsMxuAWZMmwW7zUMQu2wIrC7lkFQp9of/G300a1lLXlD8UufoTm3mAZg0NOt82wLoy04Wuf+X6zkeYxR3fK6ZT8C/6WwMEbzA00Qd6Cml4ysmjY7BJ8lHvKBOWDR3LIaNmgOHta3gMW4Cdr4s7rBYhAe+TyDo0B+/VgTeul6Deo/u8mU/DkpOhmxLTeH+n23ufrUWmDSnL9RvnsOVKHkZR/ziIq74l0cfq5loW9gdRTpNQ3ScvBlu9zzh0CMJJ5ZsxOUczzTTfaV1U6i6JOLh1pGYeiYCH91WYPKECZgge423xOhho/DXxzppb+Pa0vzXRjBs1RqVM2yIksCjcPbiofXcJRieGiyroYX5r2hk2AqtM78RR529wGs9F0uGy2/eS/HDpaPncPH8nS832gkfY8em86jw2zYsapspKfnbk48YM6oi6Vxq7ih3MKDaMz0y5NYVXGrOo2ZbWvssl0tHohd0eEJ3Gu5wJ/vjGVMlkPuE6tTUxieXS3tx5GSmS82WeCu+jCjLzazwE02/nPelo6RrM8mo6mg6+SUdmKIv2dKAbt2oa9euOb66dTejNV7ZUyNELw7ThO7DyeGOosdUphPTi42/UOVhLlTYB04WPX2Ca0UnM9JttoS8FTcinRhZgX6afjnvRwcnXaOZRlVpdOZGJNsB3aibgrb7/OrWnczWeGV7bKj4tQN1rT2e3AtxtS4TJaVP5Ktf55E+oQr9uijrJOf0iU+Zc4klgWTfUZMqWp5V+BnELzbSL5WHkUvhO37R12mcE5npNqMlijt+as5xhZ+mU97NnETXZhpR1dEnv9wrwX11yXYAdeumoG0/v7pRd7M1lH33oTh9IuWBHTXXqETj3DLUN+kUWehrkenWN7nsZ3JW+P2HmIIODqV6Xazp4M6lNGfjNYooTAVUUhxd22BJYyxG0K+ta5Cujg7p1mhN/c3H0BjL9XQ14zV3STj9s74/mfReQk5evuRzeSdNbGtMPVd45Jxu89WpzroR3V5Exho82fmEglda6slnIn86PMucpq53IY873nTp0Eoa0bIemS46R8GZdrki8j88i8ynricXjzvkfekQrRzRkuqZLqJzmd4YT7dWmdEwW2fyevCI7lzcTXNNm5LpQjd6U8islq+JBcWqRvKGtplqEg880urxV845k3kS07O1JlSqoTV55xQXiALIafZ4Wnk5lHs3J+UpHXW5mzl/jiM7oNdrszLbc9O/ENPra+fpQU6JQZIQ+uf83XzsEGLo9FhDqjPtMsWLQigoJKeK548owIlmj19Jl0PTtryUp0fJ5a6C38kFDtu61aYxpwqf76WMoFj8+hqdz7kRKeSf83Q3H3vVmNNjybDONLocL6KQoBB5aWFJKOyvnlSu1Ypc1n8+KSUozke/lskzKP5++7WM4qA4kg4N0iG9kSe+3PAnCaItnTSp/KiTCoJiCQVu60a1x5zK+0QrJ8pYp+LXdO38gxzzCiUh/9D5uxF5B5sxp2msYR2adjmeRCFBVPRmziGnOO44metXIItTGYPi0zRGX5M62QcWc1AsI6aolz5071l4tn13ySKmCL9rdHzXdtr590XyeVNcN2Tm5ntdNwn05tYx+st+C/3lcol8g3Nuy4Q3t+jYX/a05S8XuuQbnMPNxin03ucM7du+mex3OpPny7hCbSfFgQXFKkdM/hvakwYPxNcbTi4ZR5byIf7lVTp65iFFSaLIyUyPGi70VrwxCp/RgYkDaeoOd/ldzlfo/IEZNHqFb/Ydc8pjWtehFS289ZVvEY07SaMqGZO1t5AiTi6lVZ453BSXD8JnB2jiwKm0w11+F/eV83Rgxmha4Zv9sJPyeDV1aGNDdxQPVOWL6JY92R4LVoENPY5OjqpExtbeJIw4SUtXecrLC0tIl6dWI61OWyioqB9OdIvsbY9RcCF+T777dboEZxqiU4dmeebSZ7/Dfp0uwXkI6dSZRZk/XhJdndufFnpmuCoSfZIsqhrS6BPh2fsm9/lXd2hDNkXr+IVep8oWd3IUVTLmTpaEEXRy6SoqejMnkPMQHaozyzPLFbsYcp9Qm5rZ+Hzug+JXm6mT7s+0/mnhwlrV2X8wTMnGk/0DRqVIQ/ZhUJMpcI8thwF7/sPpCVnz7HIgfgC71m2xNsQcJx8PgGsnR7Q5/z/MqZc1vy4WF6a1xKDdr5GSce3zysLMKQSnRmdPe0+4sRB9tzbA4RMTUTNflSmEZG/YdbBC6NDe0EMrzLPqmy2PM19iL2Bay0HY/Tol9fpQOl5ZMziFnEKmjyf9gOOWg3HV/Bx291P80IXvSzK87TrAKnQoeusBreZZoW+hGjGdEKcsDGERsQ5Bl6aiory0WOW7X3PEj3Bk9VE8CvPF2RMPUaqzOXobV8PPk6wwUEE+6nfVrzniR0ew+ugjhPmexYmHpdDZvDeMq/2MSVYDU/PMpWGXsPl3T0gb/YJWlSLxz2EXvDCxxY75HbPkg0vx4bglBl81x7nd/RQ/AOY7k+xthw5WoRia1vFh1Tef+81sxHh0ZDWOPgqD79kTeFiqM8x7G6Paz5OwaGBa7qU03ANrf/sTHztbwqzBJ/zvTxd8GroFDqMbZHlqGKP6uPXtMBTj9gRAmK9oiAeBXh9sumCPvpnvvVUCVapLycSCYpUkhM/yDuiy+l+IGy+Eh/dG/KItX5QbaRiOju+PfYZTYRZ1HvfabsTe8fWVNJl7HG6vtMTeOluwZ0ytr3ezUHI0wmI1UcWgtLzga5IizHUGpt0ZhgMbuxV6JgPVk4zosFhoVjGAMlpRGHQPD8TGaG9URl5SzFi/LhhpHIIf+eK/6DKo17wZ6uhlv8tIGuaKGdPuYNiBjej243R8rpnDEKtZBcWy+5Bw7fzYF89idNGgZVPU1PlqvYdhmGLCgmJVJbyP9T27Y9lNEZovvgKPdb9knqIrJ9JYvL7vh0+Vm6Fpde1CjpTkQBKMs8vW4L++G7Gk4/c/tpTguw3znPRh9bsF6hX17mTm62L9WnkSfLFtnhP0rX6HBev4DMMwn7GgWIVJ35/H/L6j8MeTsujncB4uvzVDfgaMv64EREbyoK9fHEMxX1dyVBREunoo++MMlDGF9uP06zwlRyFKpAs91vEZhmEyYUGxipNGe2PrBAssO/cJLeYfwsn1hc9HZBiGYRiGYRRj4ZWK45dvj/mnH+LeoSmoFxeGqHw9uoZhGIZhGIYpCDZSzDAMwzAMw5R4bKSYYRiGYRiGKfFYUMwwDMMwDMOUeCwoZhiGYRiGYUo44P+AnQh2LZ9ijQAAAABJRU5ErkJggg==;" parent="1" vertex="1">
          <mxGeometry x="-280" y="231" width="425" height="53.95" as="geometry" />
        </mxCell>
        <mxCell id="DjFTVbm2SqqyD_zfQVQ5-5" value="B2:&amp;nbsp;các giá trị trong mảng W sẽ được sử dụng để cập nhật các bảng P và Q trong quá trình khởi tạo của HC-256." style="rounded=1;whiteSpace=wrap;html=1;" parent="1" vertex="1">
          <mxGeometry x="-255.5" y="311" width="340" height="60" as="geometry" />
        </mxCell>
        <mxCell id="DjFTVbm2SqqyD_zfQVQ5-6" value="" style="shape=image;verticalLabelPosition=bottom;labelBackgroundColor=default;verticalAlign=top;aspect=fixed;imageAspect=0;image=data:image/png,iVBORw0KGgoAAAANSUhEUgAAAY8AAABTCAYAAABnEYsHAAAAAXNSR0IArs4c6QAAAARnQU1BAACxjwv8YQUAAAAJcEhZcwAADsMAAA7DAcdvqGQAAC5bSURBVHhe7d0HXFNX+wfwXxKWAoIMkWpdtag46sRVVNQ660CpgiAOHH+11rq1VIujtljF8TpwKwgORC3WUSuIEwetIi6qAiKigBBkJpDk+d9AgAABEsVRPd/3k09fToLcnHvPec669/CIA4ZhGIbRAF/xX4ZhGIZRGwseDMMwjMZY8GAYhmE0xoIHwzAMozEWPBiGYRiNseDBMAzDaIwFD4ZhGEZjLHgwDMMwGmPBg2EYhtEYCx4MwzCMxljwYBiGYTTGggfDMAyjMRY8GIZhGI2x4MEwDMNojAUPhmEYRmNsP48KSKMOwGN9KF7IeKjWfiK83Noo3ilLk88yDMP8130cwSMjDrcfpkAskykSlPAF0DW0QP2GljAUKNIUxKHfoeMvNeEx3QbV6rRF3zaWinfKkqXcwbkrMUi/vws//OOIO37fKN552yRIib6HZyJt6OnqgCfNhUicC+1aTWBlocsdqBCxd+KRpV0N1XR4kOSKkZvLh2njprCsXvAviJ5H4cELGXT0dCCQiiHWqY2mDU1QKnuYNy4bD49vh29YCrgLEL3dJsC2NhssYN4PH0XwyArfizW/38TtP7YjICIbDQd8i1Hta+SP2VFuOp79ew0hV4Ro6rIUa5cMR2OujpWTB4+uu+xwcY899AqSlKThyuYfsCGuD1b+PBSfKMp07oVZ6LKlM8L3vqPgIUvC+e0bceiIL7z/jAUsu8BpZC90GToNE7vVAoRh2L0uAEH7NyMoKhdmHRzh0r8zBkyagt515OFBiodHlmHFul3wu/ACdbs7wGHsTPzk2hqK2MK8DbIU/Dm3D6Y/mIAjOz7F2nbDcaSLLx7tHwEjxUfeLAnigjfhf0ceQ89UD5kpYjQcNhNTe9aBluITVUYqxJPnfNSpY6T2OHralc34YUMc+qz8GUMLC19VeIVjQW4cji+fhaDG67HZ9ROVvyeJC8am/x3BYz1T6GVyDdmGwzBzak/UKZWZkoRz2OK1Cxdi05EtBow/6wT7SZNhb13qrOc+xbmdW3EiTgZBnhDPEkSoP3Aapo9sA9O31cqTB4+Pg5D2DjMivm53WhMjVaQVEwZ/S020dajpjGBKV6SJzk6ndq6HKUfxcwmiUzSprg5ZDN5K0RJFGkd8fia1cz6o+OndEYVMowYCAdWfcoZEirRiYroyrxlp8WvRmN9VfjsSXVhA9rP+ohdls4p5C/Iil1L76q3IPTxP/gNtdRtC4zbd5M7c2yChR7tGUPOu7nROqEgSXqTF3axp+M5H3LtVRBRH57bMokGtrclu8VnKUCRXTkSnJtUlHYvBtFW58L0OTY9F+pROec2m/3MbQy5D2pI5X5s6rrivMm8kj3bRiOZdyb04M+ni4m5kPXwnPVL6BUm0L020/5723SmogaTpkbTLxYr0DFvS1KMJVFQUJTHk950beZ5LIO7qyJf1z8/0ZQ1daui0l2Kq7ARV7OMJHvmVvYC0v1hE/xTmuLKsAHIy5hG/9ng6pqhPKwweHJFQSJmlKtf3JXjk3VxMbbR5ZOwUQFmKtGJ5FP5jK9LmVaehviqKiTSWdn2/iP5KU/zMvHVZ/sPJQH8Y+ZU9eW+cNGEvOVjWowknMhUpBTKPu9Gn5oNpR9xrtijS71HQyglk17wV9Zu+gYJjXuFLioQkLF34XsUrH4uIkmJj6HmmhCRRv1An7XKChzSB9jpYUr0JJ6hEbmYeJ7dPzWnwjjhFUEilQxOG0opbpSqntGPc5wQkqDueghTlUV62W3MN3Toj9lDRqZAm0uY+OgQta5p/9e00Maqwv/d+k9y+gCuJQO1OtrBW0e+WJj5GfBaBp6UFbZ4isRK6xsbQf09zkG9iCi4WIkeYihxFWiFZ0jH4n0yCDBKkpQi5/5aUemILbttMQc+3Mz7CqEB5eZDwBe9gnkmGJwE7cELYAh076ivSCujbdkPbrNPYfTAGUkWaJiRJ17F30Uju33WFb3p3eIb8jZPrp6Fng1cYENU1hvFrFL7XPxZdmNdvAAv9is+Q7EkAdpwQokXHjiiRm/q26NY2C6d3H0SMPDPF13D61DEsshuKrfkJCkZ26NPFELJnfyIoTJyfxNM3g5m+FNnpWcgrnHTga0Nbiw8eZSMz8+3MRHwkwUOGhIuXECU1RMfuHbjTXhpXYI6fxA2JNj4b7gTbsh8oSZSEmJhEZKuYf39f8E1MYKzFgywtBS9KlPQsXN4WBquxdjDigktaakrJ4CG6Au+/6mDiCMuP5eL4T5JlP8edC8E4H5mALJXXoQSZyU/wKCYJIvmPual4HP2cO/uVyULYxRsQG5qjVul6VMcc5jXzEHEpDBmKJHVkx4Zg04z+aGc3F6GGztgddgUHl7mgQ61XmT0RISkmBomvWPiq9lgqlxV2ETfEhjAvm5kwN6+JvIhLCJNnpqAuGjfUB5/PlboSjVcBquvrgSfLREZ6QUEWNJ6OU89eIuGPKWhUGLvEEbh5Pw98y17o16GyCqxqfCT1QzouXriJPJ026PZlDUVasdzHB7Fo9XnofbkIO5f0qHBiODN8K+Z77MVp79Ho5OyDx6/SBHsbBDVhYsQDcT2PVKVjlNzZiaP6LnBuYcb1TGRczyNVqRUpRdTO/cAoNzR5+01eRi73ErzGjITr5r+Rl30ZXi4jMGKEM5aeTC14P+sWdk8dAoe5e/B3Bh9ZEf5Y+M0QTN5+s6hClyUexbz+ndG8UQM0c9iIsJNemLPYEwuGNoP1KH8kVFTvShMQE8eFGANDGJbugfO4NH0ecuKiES9RpJWLu7buHMEv47qhg70XHlovwLG/Q7F93mA0M3rFaiczHFvne2DvaW+M7uQMH7UL3xs4FrVIkRATx4VjAxiWzUwuTR+8nDhEyzNTqznmhiQg9UkQJjVQKnzSaNyMTAHpWKNNq+KgINDTh17Rx6SI8VuLQ6mtMX3LcgwwVCS/YR9H8BBfxbmrGeA3bAUr6VM8efKEe8Xi3xsh8P3JAR26LUWaoz8unFyErhUN1YivY8MeEcYsnwUXG3MkBAUiNFvxnqZkz3Bi+QSMGeMKV1d1X2MwfrYv7lRacDl8Ey548CF7yQWPwspC9gT7fF9i0IRW0JP3TPhcoUotDh6yZ1wXO+ErTOlYdm0Z85bodMWsPQfgM6UdtLRawG3LQRw86IfF/U24OuIRdjgPxCqtGdi5cT5cB9ihv8scrN89G/rrvsbIzVFcf4M79RZDsfLkJeyfYgV+5gX4XGmGhcvdYFvfANKXQmRUNKohTcNL7gM8gQCCMsO3XBpXY1BGGtIqDED/Ys/Ytmg+bCdy+qxDaPgf8JrcHfVe67IS4/qGPRCNWY5ZLjYwTwhCoDqF740ci7qkSHuZAeJx+VY2M7m0/MxEWmFmaunDoFSnQXR1F/xvEOqPmofxViVbdLLkC9i6eCYmDOuCvmur4cfTZ7B6QO23Vql/FMFDcvciriYSDE1ECN/vBz8/7uV/AH9cfYaaX3ng5J3bOPaLA5qWHOItQxQaiOedndBUKxNnT5xDxmct0bya4k1N8c3Rfth4uLm5afQaP7oHGqjTwxZwwcOY63mkc8FDEWyEf25HlM1E2Bpwf97UNH/YqnhOJAOh3uFoMak/aub/XJI07gR++WEnInIVCa9AcssHHiu248iZi7h8MQTHfNfgZ5+/uWqhFHEc/lq9HPv+VdGyzLyPoLU/YcGs6ZixcBUCIlJLDrt9wFKPemDRSTMMH98Nxoq0fIZdMdGxDoI9FiEgqTA3+DA00IcsJhmWX38FUy0rTD32BPHHp1XSq5RBWm6Dnpc/okISSVGDQyVBXXzJ9Zb6fxKLP/x9cfjSk7LnWFOiUAQ+7wynplrIPHsC5zI+Q0t1Ct+bOBYNyMrPTPAKMhOS8j6SexvrF2zD844/wm/NUJiXqq355raYtHQNvPfsx8YRQqx2sMfcw9F4jSKqGcXE+QdMSo/X2ZEurzr12/K8eLmbGkqvtpIkxVOCfN1r6gFyNNejDstuFy2VK/S+rLYiekFb++kSdHrQ2sfct865SivnbaOHhctBMveSvT6PtDutoPtcmvjGKpqxNrLM9ykkvr6OJs7wpXvlfYDLpSOTXWl7Yvk5nBM0nuroahOPx/3dGvXIZpQnhTwr/rz0RQitmz2b5i34hlpW+4ymh5ZaNZJ2lpZNXky/R6WRhMSUELyIbGvVpcHe98o97v+qzD2DSVe3L21JUiRQFgU6mxJfdyDtULEKLn91Ft+YvtlXuNA8jyKXtCNtg2HkV3LRVMXyrpN7S20SNJxGIaXXeIsv0iwrLdJqMocuqbWgJ4ceh3rT9wNbUws7N1oZdL9oGbzGJEkUX1D46ICjOel1WEa3NTrpVXgspZS/2iqPrru3JG1BQ5pWNjPp4iwr0tJqQnNUZmYqnZ3bjup396BzKWrUWtKntG2gMfH1mtPsUPUXPb+Oj6DnkY6L528gV6sFbG3NXqurJTCvA0tdGZ4f9cOpLBs4OjWt+humqow+atasBh6lITU1F//uCYTAcTQ+K2x1yudEaijmRPJi4OubjeETWpT7fXTaf4eta124XpcioQwZstNTkFVRs45XG2MOJ0P44iUyXz7GVb95sFO6Y5pvaofvVq2C56JhaKKjSFQi/H099twm6NcyggA6sOzpjuWjquHkivUIfZvNyXdBJkR8QgZIoANdbUWaEr6uHpcjWXgWn6xIKcCrURM1NblI+bVgZsJdF2JRmVV6XCLEuQReTVOYVdh7KaSHet0nY80f4QhZ3QuZ/mPRuZMjFvuHI1mdoVdlAnPUsdSF7PlR+J3Kgo2jfARA8Z5aqvBY1MZHLTMTrgyKISqbmRCLc0G8mjAtk5ki3N44HgsejsWRP35CNxM1ai1+bXzV6wtoie5i+9pApCiS36QPP3iIr+P8tQwIGnSBbVHN+Rpk8Qj0D4HU1gkjGwogTRPi5auMm8ie49SvU+DmNh7jx6v7csPEBf64p9bFzoOpiTH4XKWTHBUIn8Q+cGujNKAqnxMxls+JpCD62HY8+nIyuqocthMh4doR+BwMQ0JVFDK+HoyMdSARVTjwoVK1zzuhTW0dpbF4LZiZGgHcd1BeFPBB4hvBwrw6IM1BVpmKSJ6cDTHpwczCRJGikD82ogG+BZo3tQBPmIzk/GVaSqTJSEoFjK2aoa5GRUkA8zZOWLIvDFd8RsModB562XyNmd6hiCv9NyokQ3ygP0KktnAa2RACaRqEGhe+qjoWdfBh0bwpLHhcGSybmUguyEw0K5GZUsQFzMQPkY7w3/8t2hgUpEoiD+LgDfmAVCZCFrZHbYtWmHokUWnIlg8zcxOubBCyH6uzoOH1ffDBQ3LvAq48J9Ts2A1tVbRmNSWNCcCBS9roPWoYLPnZOLN61atNmnOVd+uBTnB2dtbsNbwLPlWrxSWAiak8eLxAiPdNtJxoV/KxFvI5EflqrJSL2HiuISYMrqXiYpAi5sCv2ProE9Dvjhi98dXW9xfLxE0/DyxdswM+237GZJfp2H0rU/Fe5fQ6z8PBQz+iR+EXkT7CqTNRMB8wHD0++Dn+6rAb0htmske4d7d0N0uCu3ceINfYDoN6lV1NqBld2PTriVrSeMTGlayBpPExeCIyQve+tq/8qBoDq4GYvTUE14/Nh/VDL9jb2GHCyiDcUycISGMQcOAStHuPwjBLPrLPrMaqV16x8prHoiZdm37oWUuK+Ni4/MUMRbj8jXkiglH3vrAtykwZUs8uh8e1vtiwcSQaFdVXUjw5ewFR8hLKleeblyORmPwAtx4Iuf5LIRlSUoSQEh8GjZqgnka9slekGL76QEkoenU30uVVo77ems13yKm6wzwrwJGMDQbRzhQiaZwPzV1ytsSdo+/PnIeU4tb2IB1eDerhpeqxCQVzIjy9dvRTeNkHmOQTXyZPj0BKEV8n91ZmZO9TNACvQhb5OQ2kdRXcfSyJvUSh94tzK/3waKrTeDKdLD2Gn7WPHIxUzHmUIKJbXr2pQfvZdLKCeZb/qtTtA0hXpxdtSFD6bnn3aPPAT6jucB+ST2MVkiYcJOf6tajXmltKjy/Jo38WfUE6FuMoqLxHJJSHO99LOhhTh6XKc2ASivrNlozbulNYFd71Lnlxg/Z7uNCQhScrfyRIVgA5GhvQoILCRz5zl9BZTeZzKqHRsSjJi1xC7bS1qa3HLRVzb2K6vqQDGXdYSpFKb0qifiNb47bkrpSZWTdWU5/PW9OgMeNo3LjC11hyHWVPnZqOpL35kzR5dNuzJ7V1O0ixysVD8oDW2tUgfrUvaMGFKsyUCnyYwUOaSMe5i2DEsL7Uuo4R1ahhRA06DaWRLj/SkXj1KxpVwUMSu5scrHrQvN2byH2GJwWXevjT+xM8iDJ87cn4i4UUprLyyKEAJzP6fMppquwpJDnB06jxJ850qPDRPNwFHL5uFPXp1ZN69ix82VFLS3Nqaquc1ot626+g84q/n5OeXuLZTNKY1WSrq+L5WpUGDzE98BlPvUesoSupH1jgEIfR2nHDyK6pGdUwMqMmPRxolOsKOlM4u5t5m3y/G0A97b+lpZv20J51C8mxV1+avP1G0QSwNDGIFjsNpo4NjLlr35Ja9h5GjpM2kfwxWeoS391FrjbdaarfDUpMT6KIAzPJroMjbYl4B89LKSSJpd0OVtRj3m7a5D6DPINfaNwgrDoZFPzrGBrtMpK+bl+PjI2MyLheexrkOJpGj/ml+HzJie/SLlcb6j7Vj24kplNSxAGaadeBHLdEFD86iGuozbfWIZ58MkTFS7vFQrpWeP7E0XRo7nAaPu032hd8nSLCz9C2aR3JonZnmh7wsEQZe5M+ogcjaq68Z1tJUh/S9Wv3KEnFWXqfgockOpiO3yhvTYmUnp4/TlcrffJhGh1xrUON/u80ZYqfUuzT8i7NSnoeKXtoqJEJOQUUt4qksV7UTbcmjTqkSfAQU5TvdzRuyWlKyO9OcS2x/fvoLT3O5/2Rl0axEdfoZoxQRWu3iuTE05XALeS1cjV5B1ymOJWNkLdMkkoPr1+je6oK33sth+KvBNIWr5W02juALldBZmZEX6YgP29as8ab9p+6RrHpbzeUsuBRgcoejKjK+xQ8qkTGIRplYU3zwkT04pA7LT1bXsuzkuCRc4a+HzSXzir1FISHXOiTOs4UkFTqd7L8abhRI5p+tvRwmoju7XKjIZM30rEzZ+gM9/rr+C6a6uyhUauaYZjXx3YSrEDF+3mo9s7386hquWFY/OUcJDj0gwnaYeacAbBUucwiG/6jRuCFZxC++1TVB2R4dmoVfjsrQ/Ou7WCRch4++x7AZtFGzLI1LZisl0Rg77L9iHgWjt8DbqJad0f0s66LLhPmYEgjAV6e+D+0HboV0UVPg5PjwdDeF08PO+MtPZWBqQx3Htc4jMW2KFH+mEuleAKY9F+JE6sHVP1eJe/TsXxgWPCoAAseCrlCPHupC0v5UtFyVRY8Csgy4hARfhdCAyu0/qIRTKpgBRzDMG9f+aWcyZd5eQ1cRozEuLVhihTV5A8c/NZxBJyXnERi1a30ez/o1KwkcMhpoWGn7rCqUfElxTeshzZ2/dCzAwscDPNfxnoeFcl4jIh7zyEiHgRmjdH+s1I3YCnT5LMMwzD/cSx4MAzDMBpjw1YMwzCMxljwYBiGYTTGggfDMAyjMRY8GIZhGI2x4MEwDMNojAUPhmEYRmMseDAMwzAaY8GDYRiG0Ri7SbAC0qgD8FgfihcyHqq1nwgvtzaKd8rS5LMMwzD/dR9Z8JAhK/YijhwORuTTl8jIzIVBw44YMPIb9GhY9tlN8gcjdvylJjym26Banbbo28ZS8U5ZspQ7OHclBun3d+GHfxxxx+9dPRhRgpToe3gm0oaerg540lyIxLnQrtUEVha63IEKEXsnHlna1VBNhwdJrhi5uXyYNm4KS0UWiJ5H4cELGXT0dCCQiiHWqY2mDU1QBTvAM1Us++FxbPcNQwqqoU5vN0ywrc2GE5i34qO5zkQxJ/DziC/Rd34w0HkSfvptLTasWQxnq2j82rcN7FeHQajigYZatVuj39cDVQSONFzZPBUuC48igfs9vmlz2A38Gv1t6qMaT/GRd0GWijtnDmHr7AGw/rwxmtlNwMpdgTgb9TJ/s3zZy/sICdwF96Et0fgzK3zp+jN2Bp7BHWHh7uRSxIftw5pv+6FVk1boO8UTPhfiUHrXbOZdkyHlz9mwHbAF2iNmoEPCFky3/x6HXirefgskccFYP/dbzF70E9xnfos560PwtOS251VECuGTp9Boa/G0K9g81QULjyYoEqrKKxxLbhyOL3bAZJ+E/DKokiQOwevn4tvZi/CT+0x8O2c9QlRlpiQB5zbOwVhHBwwbPAjDXL/HyiN3Ufa05+LpOW/8NP8HLPqB+3fHOWOChz9upBSW8yog73l82CQUFzSTbGpbkdO2iKKtOpVlXppHLfUsyX5XTIm9vivcDEp0iibV1SGLwVspWumX3pfNoEQh06iBQED1p5yhsjuUi+nKvGakxVexBayC6MICsp/1F1W60SDzbuRF0tL21amVezjlcf+L3OpGQ8ZtoptvaYM9yaNdNKJ5V3I/V7g3sZAuLu5G1sN30qOyG+a/IhHFndtCswa1Jmu7xXRWg43FRacmUV0dCxq8NVqR8ro0PBbpUzrlNZv+z20MuQxpS+Z8beq44n6J+qWI5BHtGtGcurqf43KxgPDiYupmPZx2KmemJJp8J9rT9/vuFNRj0nSK3OVCVnqG1HLqUSre7l5CMX7fkZvnOUoo3CQt6x/6+csapNvQifbGVM0J+sCDh5SeHnIjK/1P6OtNd1RUogrSOPpfr2qk1WgaBSvVpZXtJCgSCimzVOX6vgSPvJuLqY02j4ydAor3SS6SR+E/tiJtXnUa6quiFEhjadf3i+ivyjY3Z94d+W6LBvo0zO8d7CkuTaC9DpZUb8IJKt5UmJN5nNw+NafBO+Jec2/xdLoXtJIm2DWnVv2m04bgGBXXcGVEJBRmVsEe5696LCJKio2h55kSkkT9Qp20ywseUkrY60CW9SbQiZKZScfdPiXzwTuocHPO1EMTaOiKW6W2HU6jY9znBIK6ND5IUWDzbtLi1tqkU2cE7Sna2VNKiZv7kA60yHr+1SrZ5/yDHrbKvbUGLpP2IGuwF7ZNtoauIr0MvgXatqkHxP2JY9dzFYmV0zU2hv57moN8E1MY8wg5wlTkKNIKyZKOwf9kEteFliAtRVimK516Ygtu20xBT7aV2vuL8pAn4UPwDiaiZE8CsOOEEC06doS+Ii2fvi26tc3C6d0HEfMqoyOSJFzfuwgjuX/X1Tcd3T1D8PfJ9ZjWswEq202mLF0YG+u/+rj8ax+LLszrN4CFfiUnSPYEATtOQNiiIzqWzEzYdmuLrNO7cTA/M8W4dvoUji2yw9CtMSjOXiPY9ekCQ9kz/Bmk2HOIpw8zM31Is9ORVbTrJh/a2lrgc3VCdmamersqVuLDDR7SGOyYtxznRB3x3WIH1K7wm/JhUL06eNKniI5RY3RflISYmERkazLu+ZbxTUxgrMWDLC0FL0oU5Cxc3hYGq7F2MOIupLTUlJLBQ3QF3n/VwcQRlh/PhNiHSJaN53cuIPh8JBKyVF2oEmQmP8GjmCSI5D/mpuJx9HPu6qhcVthF3BAbwrxW6WpUB+bmNZEXcQlhGYokdWTHImTTDPRvZ4e5oYZw3h2GKweXwaVDLWgpPqIJUVIMYhKzy59fqEgVH0ulssJw8YYYhua1ygQlHXNz1MyLwKX8zBSgbuOGXGOVz5XLkpOqgur60OPJkJmRrkhojOmnnuFlwh+Y0qgweIkRcfM+8viW6NWvQ/kNaQ18sPVD1hlPeJ55Cf3urnCxqqx5JkVycip3sclbchXPdmeGb8V8j7047T0anZx98LgK55+qlKAmTIx4IK7nkap0jPIdD4/qu8C5hRnXM5FxPY9UpVaMFFE79wOj3NCELa16T+XiktcYjHTdjL/zsnHZywUjRoyA89KTSM1/Pwu3dk/FEIe52PN3BvhZEfBf+A2GTN6Om4oKXZZ4FPP6d0bzRg3QzGEjwk56Yc5iTywY2gzWo/zzF4CUT4qEmDjurxjA0LB0WeFxafrg5cQhOr7ymXNZ2h0c+WUcunWwh9dDayw49jdCt8/D4GZGr1gxZSJ863x47D0N79Gd4OzzWOnarljVH4t6pAkxiOMitoGhYamQwOUml6bPy0FcdDwX6rXQfG4IElKfIGhSA6WVj1JE34xECunAuk0rRRpHoAd9PaVPxfhh7aFUtJ6+BcsHVM1u/x9o8MjCGf+jeCIzQPfhQyrpdXBkibh9/xlkAkvU+7SCvVHF17Fhjwhjls+Ci405EoICEZqteE9TXDfzxPIJGDPGFa6u6r7GYPxsX9xRZ0UL34QLHnzIXnLBo7Ay4LrI+3xfYtCEVtCT90z4XPBILQ4esmcB2JHwFaZ0VHfHdubt00HXWXtwwGcK2mlpoYXbFhw8eBB+i/vDhDuTj3Y4Y+AqLczYuRHzXQfArr8L5qzfjdn66/D1yM2I4q4dvsVQrDx5CfunWIGfeQE+V5ph4XI32NY3gPSlEBkVjmlIkfYyA8QTqGxoCQRcYaMMpKVVFIGk+HfPWLRtPgw7c/pgXWg4/vCajO71Xu+6E1/fgD2iMVg+ywU25gkICgxF5cXzzRyLuqRpL7n85nH5JigTPORjknwQMtLSFL0oLegblOoziK5il/8NUP1RmDfeSpGoIEvGha2LMXPCMHTpuxbVfjyNM6sHVF4fqunDDB65t3DpWgpkWs3QuYtZ5V8y7QLO35CAZ9IZPdqWHzxEoYF43tkJTbUycfbEOWR81hLNqyne1BTfHO2HjYebm5tGr/Gje6CBOv1nARc8jLmeRzoXPBTBRvjndkTZTIStAffnTU3zh62K50QyEOodjhaT+qNm/s8lSeNO4JcfdiJC/Smhconj/sLq5fvwb+lmoeQWfDxWYPuRM7h4+SJCjvlizc8++FtpJFGWeguBm1bDa9VyuC9Yhp0XnqhYRpyNf//chlUrfsXKlV7wCZPP73wEUo/CY9FJmA0fj27GirR8hug60RF1gj2wKKAwL/gwNNCHLCYZll9/BVMtK0w99gTxx6dV2uuUSctvz/PkNSBJIKmwyS9A3S+53lL/TxD7hz98D1/Ck9deCy5CaOBzdHZqCq3MszhxLgOftWyOyovnmzgWDcikRY23MgoyE5JyMzMXt9cvwLbnHfGj3xoMNS9V03F1jO2kpVjjvQf7N46AcLUD7OceRnQVlOF8ionzD0tWADka84hv7kpHy1sqVURKST72ZMwXUKOpZ0qsHim92kqSFE8J8iVbqQfI0VyPOiy7XWrlw/uz2oroBW3tp0vQ6UFrH0uJcq7Synnb6GHhco/MvWSvzyPtTivoPpcmvrGKZqyNLPN9Comvr6OJM3zpXnkf4HLpyGRX2p5Y3voWKb0IWUezZ8+jBd+0pGqfTafQ0ks+coJofB1d0ubxiKddg+rZjCLPkGfFK2ZyLtOPvYfRxrsFv5gXu5PsLS1p0NaHxatYxFHkP3UIjfnfFUrijjXv9lr6ynosHSmxkuUDkLmHBuvqUt8tSYoE7rIPdCZTvi4N3KFimVz+6iw+GX+zT7FcPY8il7QjbYNh5KdR3uTRdfeWpC1oSNNCSq9fFNPFWVakpdWE5lxSbz1PzuNQ8v5+ILVuYUduK4Povqq19GqRUFJ8Qv6KytQDjmSu14GW3S73YlWp6o6lpIpWW+Vdd6eW2gJqOC2kzGpQ8cVZZKWlRU3mXFK5Oir17FxqV787eZxLKS4j5ZLS020DuXpOj5rPDiUNVj2X68PsefB1oKvDA9+oJkwq+4bS+9jhfQrpRr0wa2aPkqtHShGY14GlrgzPj/rhVJYNHOWtHMV77x991KxZDTxKQ2pqLtc1D4TAcTQ+K2xVyudEaijmRPJi4OubjeETWpT7fXTaf4eta124XpcioQwZstNTkFVuq40PU7vvsGqVJxYNawLV/Tseao85jGThC7zMfInHV/0wz674jmnZyyhE/n0BFyILBiO06naFTf0UnPsrXNH7kCBi1Ti4p4zEb1M7wpw7Vp5WLbT5qjPqv78nqorIIIxPQAYJoKOrrUhTwteFHpfpWc/ikazUkOXVqImaGuUNH7XMTLjrSgxR6WV8XCtZLM4F8WrC1Ey9STO9et0xec0fCA9ZjV6Z/hjbuRMcF/sjPFmdsVllApjXsYSu7DmO+p1Clo0jnMq/WFWqumNRH7+WGUx4XL6VzUyQWIxc4qGmqZnSHEcB0e2NGL/gIcYe+QM/dTOpfHSF+0Ttr3rhCy0R7m5fi8AURfJr+DCDh7YVmjQUcJVNWsm7xmViZIuUu4AyPPFbhHXX9NF76VpMbqzGBS+LR6B/CKS2ThjJ/Q1pmlCzu00LcRf5qV+nwM1tPMaPV/flhokL/HFPrWuZB1MTY/BlQiRHBcInsQ/c2iiNl8rnRIzlcyIpiD62HY++nIyuKiOnCAnXjsDnYBgS3lwZUsKHnpExdCSiMt15vsVYBCYlwG9EwZiMLCkMVx8ao9fAL5E/Qi06i81b7qD1wP6omZ2ARzHJyGviBM+1k6D81T9MfBhZmKM6l2s5WWUrIkhzkC0m6JlZwET5Ms8fGtEEHxbNm8KCx11XyfnrtJRIkZyUChhboVld9YJHIYF5Gzgt2YewKz4YbRSKeb1s8PVMb4TGlf4bFZPFB8I/RApbp5FoKJAiTaj5LfdVdSzq4Fs0R1MLHoTJyQWr3pRIk5OQCmNYNatbInhI4wIw84dIOPrvx7dtDAoSJZE4ePBG/v/NDFmI9rUt0GrqESQq1U18M3Pu3HMNxuzHai1oqMyHGTwEn2OIfQfopl3FhRvyAT4ZUkLXY767J9aunA9333tcG5WrayI3YtL8YNSetgc+U5up1YuQxgTgwCVt9B41DJb8bJxZverVJs25yrv1QCc4Oztr9hreBZ+q1aASwMRUHjxeIMT7JlpOtEOJ2zbkcyLy1VgpF7HxXENMGFxLxcUgRcyBX7H10Seg3x0xeqPy+vI3I/OmHzyWrsEOn234ebILpu++hUzFe3ICLS1kPzyPI75emO62B/o/HsWO0XXyj13y4BKuJxqCf38rVmw/g3/C/DHvm5FYfDzujR/3+6C63RD0NpPh0b27ZeaBJHfv4EGuMewG9UINRdqr0rXph561pIiPjcsvR0Wk8Yh5IoJR976w1fzGjAIGVhg4eytCrh/DfOuH8LK3gd2ElQi6V/B4nYpx12vAAVzS7o1RwyzBzz6D1atCFe+9gtc6FjXp2qBfz1pc1sUirmRmIj7mCURG3dFXKTNlqWex3OMa+m7YiJGNivvv0idncSFK/v9keHHzMiITk/Hg1gMIlRY/yFJSIJQS+AaN0KReFXTFFcNXH57087SwnSHVGuhNUVnXaOWivfQsf2AwnQ4u8qCgYE8a1KwZDVkRSknlDBiqusM8K8CRjA0G0c4UImmcD81dcrbEPMn7M+chpbi1PUiHV4N6eKm6s7VgToSn145+Ci/n3nvxZfL0CKQU8XVyb2VG9j7F4+tlZZGf00BaV3RHa/my9jmQkao5D0ksXQq9X5yf6YdpdJ3GNPlkyTF8UeJDuhV+gY56jaeePSfRrsiC3xCfm0GNtXSp1cKwovFjSZQndTXrResflM2B/7TU7TRAV4d6bUhQGu/Oo3ubB9IndYeTj3yeq5A0gQ4616davdbQraI8z6N/Fn1BOhbjKKjSecHSxHR9SQcy7rCUIpWmFSRRv5GtcVtyD6vCu94lL+jGfg9yGbKQTlY6UJ9FAY7GZDBoJ8lnAeJ85tKSs1U42aXRsRTLi1xC7bS1qa1H6bvDC4ivL6EOxh1oacnMpN9sjamte1jxHe1ZN2h1n8+p9aAxNG7cuKLXWNdRZN+pKY3cq5jNuu1JPdu60cFY5QImoQdr7agGvxp9seBCyScDvKIP+vEkkoS/aMmgltT66+H09ZhNdPNhJJ0/7E1TOtWjL0Yup2MPFadFmkZJL8pWoKqChyR2NzlY9aB5uzeR+wxPCi718Kf3J3gQZfjak/EXCylMZeWQQwFOZvT5lNNU2VNIcoKnUeNPnOlQ4YN3uCIQvm4U9enVk6u8C1921NLSnJraKqf1ot72K+h8qb9fbvDISad05TRpDK221aVaY34vcQ6KpdPvY+uQnvVcush9IO/GYmqtY0FjlWvDnMPkYqpHdmsfqzGp+F8gprC142iYXVMyq2FEZk16kMMoV1pxpnB2N5Nu+35HA3ra07dLN9GePetooWMv6jt5O91QfESaGESLnQZTxwbGVKOGJbXsPYwcJ22icE3ml8V3aZerDXWf6kc3EtMpKeIAzbTrQI5bItR8fMebIKHY3Q5k1WMe7d7kTjM8g9/hs9kyKPjXMTTaZSR93b4eGRsZkXG99jTIcTSNHvMLFZ2ufGK6u8uVbLpPJb8biZSeFEEHZtpRB8ctFFGUmWK6PN+aawzm3xxe9qXdghZeKzyBYoo+NJeGD59Gv+0LpusR4XRm2zTqaFGbOk8PoIely90r+ggejCimpMjT5LfZizw9V9Mm30Ba3Nuapp8tDhbC4zNp2q7nZSqX8p5tJUl9SNev3aMkFSfhfQoekuhgOl5YY5Qhpafnj9PVSktXGh1xrUON/u80ZYqfUuzT8q681+15pNCeoUZk4hRQ3CqSxpJXN12qOeoQdw64luTBb6mfvSddKipQErr/SyfS1u5Ev8iXjGUcJEdTM3I5rBw8jtBoU13qtjrmAwke6sqjtNgIunYzhoSaBAWN5FD8lUDa4rWSVnsH0OU41SH+7ZJQ6sPrdO1eElfy/1ty4q9Q4BYvWrnamwIux5XTYNJARjRdDvIj7zVryHv/KboWm16lZeAjCB6lJdLmPtWpoesBislMowcnltKANs60X8XYVWUPRlTlfQoeVSLjEI2ysKZ5YSJ6ccidlp4tr12pQfDwH05GjaaTUvzm5NCZ7wfR3LOpxRe48BC5fFKHnAOSuDQJ3V7WieraLqOLRYeQTsfc6pLO599RaP5JSqNj4xvSFz9cL6o4JI9WUTfjLvSLhss2GYap2Ee4k2AG9jl8CufAdPmCJO5lhB6rLuH0TOsyE+byzaC67rLDxT32Bat51JB7YRa6bOmM8L3vajOoKpYbhsVfzkGCQz+YoB1mzhkAS5XLLLLhP2oEXngG4btPVa/DkETsxbL9EXgW/jsCblZDd8d+sK7bBRPmDIH8ETyyZ6ew6rezkDXvinYWKTjvsw8PbBZh4yxbmHL/pEx4Ef9bfhhZTWzRuYUpXl7xxvKdOXDatguzOxeuwArBz99uQHL3MbBvmo4/N+xDuoMX1jg3rZLn+TBVQYKINQ4Yuy0KIrVqHx4EJv2x8sRqDKjyh3W+T8fy3/IRBg8Zkk/MRj+XjbhNjdBn5gZs/7E3LFTUdyx4KOQK8eylLizNK1pCU3nwUIssA3ER4bgrNIBV6y/QyKT0HSFSCKP/wc2oF+DVbobWLRvAuHTUl3L/xq1w3EszRtO2rVDfSLNlowzDVO4j3sNcxv1P/oTK8smDxxcTb6JFG0sYdvkeu77vrHinLPkDB79fdgqJLyJxpdZSPPH/gIKHWnIRtn4dXo6Zi37sUe4M88H7iIOHGjIeI+Lec647y3VVzRqj/WcmijdU0OSzDMMw/3EseDAMwzAae43BaYZhGOZjxYIHwzAMozEWPBiGYRiNseDBMAzDaIwFD4ZhGEZjLHgwDMMwGmPBg2EYhtEYCx4MwzCMxljwYBiGYTTGggfDMAyjMRY8GIZhGI2x4MEwDMNojAUPhmEYRkPA/wPZh5pk6fiUXgAAAABJRU5ErkJggg==;" parent="1" vertex="1">
          <mxGeometry x="-255.5" y="381" width="302.86" height="63" as="geometry" />
        </mxCell>
        <mxCell id="DjFTVbm2SqqyD_zfQVQ5-8" value="B3: Chạy mã hóa (cipher) 4096 bước mà không sinh ra bất kỳ output nào" style="rounded=1;whiteSpace=wrap;html=1;" parent="1" vertex="1">
          <mxGeometry x="-210" y="444" width="200" height="60" as="geometry" />
        </mxCell>
        <mxCell id="DjFTVbm2SqqyD_zfQVQ5-12" value="Quá trình khởi tạo key và IV" style="rounded=0;whiteSpace=wrap;html=1;" parent="1" vertex="1">
          <mxGeometry x="-535" y="251" width="120" height="60" as="geometry" />
        </mxCell>
        <mxCell id="DjFTVbm2SqqyD_zfQVQ5-15" value="" style="endArrow=classic;html=1;rounded=0;exitX=1;exitY=0.5;exitDx=0;exitDy=0;entryX=0;entryY=0.439;entryDx=0;entryDy=0;entryPerimeter=0;" parent="1" source="DjFTVbm2SqqyD_zfQVQ5-12" target="DjFTVbm2SqqyD_zfQVQ5-10" edge="1">
          <mxGeometry width="50" height="50" relative="1" as="geometry">
            <mxPoint x="-305" y="351" as="sourcePoint" />
            <mxPoint x="-315" y="271" as="targetPoint" />
          </mxGeometry>
        </mxCell>
        <mxCell id="DjFTVbm2SqqyD_zfQVQ5-19" value="" style="edgeStyle=orthogonalEdgeStyle;rounded=0;orthogonalLoop=1;jettySize=auto;html=1;" parent="1" source="DjFTVbm2SqqyD_zfQVQ5-16" target="DjFTVbm2SqqyD_zfQVQ5-18" edge="1">
          <mxGeometry relative="1" as="geometry" />
        </mxCell>
        <mxCell id="DjFTVbm2SqqyD_zfQVQ5-16" value="Tạo keystream" style="whiteSpace=wrap;html=1;rounded=1;" parent="1" vertex="1">
          <mxGeometry x="-127.5" y="591" width="120" height="60" as="geometry" />
        </mxCell>
        <mxCell id="DjFTVbm2SqqyD_zfQVQ5-21" value="" style="edgeStyle=orthogonalEdgeStyle;rounded=0;orthogonalLoop=1;jettySize=auto;html=1;" parent="1" source="DjFTVbm2SqqyD_zfQVQ5-18" target="DjFTVbm2SqqyD_zfQVQ5-20" edge="1">
          <mxGeometry relative="1" as="geometry" />
        </mxCell>
        <mxCell id="DjFTVbm2SqqyD_zfQVQ5-18" value="i = 0" style="shape=parallelogram;perimeter=parallelogramPerimeter;whiteSpace=wrap;html=1;fixedSize=1;rounded=1;" parent="1" vertex="1">
          <mxGeometry x="-127.5" y="681" width="120" height="60" as="geometry" />
        </mxCell>
        <mxCell id="DjFTVbm2SqqyD_zfQVQ5-23" value="" style="edgeStyle=orthogonalEdgeStyle;rounded=0;orthogonalLoop=1;jettySize=auto;html=1;" parent="1" source="DjFTVbm2SqqyD_zfQVQ5-20" target="DjFTVbm2SqqyD_zfQVQ5-22" edge="1">
          <mxGeometry relative="1" as="geometry" />
        </mxCell>
        <mxCell id="DjFTVbm2SqqyD_zfQVQ5-20" value="j = i mod 1024" style="whiteSpace=wrap;html=1;rounded=1;" parent="1" vertex="1">
          <mxGeometry x="-127.5" y="771" width="120" height="60" as="geometry" />
        </mxCell>
        <mxCell id="DjFTVbm2SqqyD_zfQVQ5-25" value="" style="edgeStyle=orthogonalEdgeStyle;rounded=0;orthogonalLoop=1;jettySize=auto;html=1;" parent="1" source="DjFTVbm2SqqyD_zfQVQ5-22" edge="1">
          <mxGeometry relative="1" as="geometry">
            <mxPoint x="-325" y="961" as="targetPoint" />
          </mxGeometry>
        </mxCell>
        <mxCell id="DjFTVbm2SqqyD_zfQVQ5-27" value="" style="edgeStyle=orthogonalEdgeStyle;rounded=0;orthogonalLoop=1;jettySize=auto;html=1;" parent="1" source="DjFTVbm2SqqyD_zfQVQ5-22" edge="1">
          <mxGeometry relative="1" as="geometry">
            <mxPoint x="-155.00000000000023" y="881" as="targetPoint" />
          </mxGeometry>
        </mxCell>
        <mxCell id="DjFTVbm2SqqyD_zfQVQ5-22" value="i mod 2048 &amp;lt; 1024" style="rhombus;whiteSpace=wrap;html=1;rounded=1;" parent="1" vertex="1">
          <mxGeometry x="-385" y="841" width="120" height="80" as="geometry" />
        </mxCell>
        <mxCell id="DjFTVbm2SqqyD_zfQVQ5-28" value="True" style="text;html=1;strokeColor=none;fillColor=none;align=center;verticalAlign=middle;whiteSpace=wrap;rounded=0;" parent="1" vertex="1">
          <mxGeometry x="-385" y="921" width="60" height="30" as="geometry" />
        </mxCell>
        <mxCell id="DjFTVbm2SqqyD_zfQVQ5-29" value="False" style="text;html=1;strokeColor=none;fillColor=none;align=center;verticalAlign=middle;whiteSpace=wrap;rounded=0;" parent="1" vertex="1">
          <mxGeometry x="-245" y="841" width="60" height="30" as="geometry" />
        </mxCell>
        <mxCell id="DjFTVbm2SqqyD_zfQVQ5-35" value="" style="edgeStyle=orthogonalEdgeStyle;rounded=0;orthogonalLoop=1;jettySize=auto;html=1;" parent="1" source="DjFTVbm2SqqyD_zfQVQ5-30" target="DjFTVbm2SqqyD_zfQVQ5-34" edge="1">
          <mxGeometry relative="1" as="geometry">
            <Array as="points">
              <mxPoint x="-325" y="1081" />
            </Array>
          </mxGeometry>
        </mxCell>
        <mxCell id="DjFTVbm2SqqyD_zfQVQ5-30" value="" style="shape=image;verticalLabelPosition=bottom;labelBackgroundColor=default;verticalAlign=top;aspect=fixed;imageAspect=0;image=data:image/png,iVBORw0KGgoAAAANSUhEUgAAAfMAAABGCAYAAADYf305AAAAAXNSR0IArs4c6QAAAARnQU1BAACxjwv8YQUAAAAJcEhZcwAADsMAAA7DAcdvqGQAACz8SURBVHhe7Z0HXJNX98d/SRBEjDIddaLUhaMgiiIE0dda5e2/iqMu1Eqt2+LGVcFacc9Wxbbigjrqnq2vg6ECUgEZgkWmLBFBhpKQ5P4DPCojwJMQZHi/7fPBnCeBPOfcc89d514OkQEKhUKhUCj1Fi7zk0KhUCgUSj2FBnMKhUKhUOo5NJhTKBQKhVLPocGcQqFQKJR6Dg3mFAqFQqHUc2gwp1AoFAqlnkODOYVCoVAo9RwazCkUCoVCqefU3qYxkiicdN6DOy+k4GiaYd8OB+ZG5UiiTsJ5zx28kHKgaTYTOxxMmDv1EQmiTjpjz50XkHI0YTZzExxM1Jl7laCk7uoWSj57faVB2KwSJEm4dT4aPUZbo1VNdBFomVcZDasOrQVYl8Us3D93H61sR8DwA5hZBcE8Bwlh0cgQSiFlJO/hgqfBR8sOhmjN5zGyYu4s/AyuOs5Y0F8TbUyHwaQ1uxpAmhEOL79YZEe6Y9XDCQj3GMfcqU2U00ERwjtYaO4KHecF6K/ZBrbDWTiWNAPhXn6IzY6E+6qHOBPuwdyoDT7ws8tFhKRALwSnCcG+NHPA0+4KS0sj8BlJjVKnbKZ6pIlnsGjFI4z+eR0G61bmyx+2vpBPbZUXKTLCveAXm41I91V4OOEBPMY1Ye4pTk5CGKIzhJCWVyS4PA3wW3aAYWs+ynmeyvxOpsmkQHgFp0GoQBjh8LTR1dISRh/E8WoABXw5L3An5v+uh9V7p8JIjRHWENUP5nmBOL7zAoLDLuO30yF4bTgS8yeZoVmhrxERslOeIOCWHzK7TcH6XS4YY6RR9LE7C83gbuOLI6MbF72umFfw3++EvXHDcHyzHSOTFSKfxbBwG4jA43UgmCupgyIKHWuQO2x8j6BiVcjXgUwJWGzhhh2BxxlBLVBbz14SkT+czOwR2M8ahmzrePICgf/TxOoIT4ytoj4VJVzBhsUXYbRnP6Z+UtEfECPh5j7sPRePxnqNkSurZA3tFmHukDYo5cN1wWaqRhiMreNcwHM9jcXGVdRYtVRflKLGyouskeB1CAevJkDKK0BmSjLyO9hi3oKvYaJXMqSK4LPYAm4DvXFc6WCeJ6v7duJCcBgu/3YaIa8NMXL+JJgVKxKi7BQ8CbgFv8xumLJ+F1zGGOGd57HyO5km/ffDaW8chrm6wq6dPEWJ4O9kBvvAfrBmr0i8CPwfNFdHwLMqx5PBxvfECTexb+85xDfWQ+PcDAgN7bBo7hC0KVMUxclecNvhDp+4bLwWAtqdB2D0d7Mwukdz5h0MoiR4HTqIqwlS8AoykZKcjw6287DgaxOUNiMbX5Yg/ug3mBc9CyfWD0JTRlojFAZzVZB53I4052oQ652xRMLI3pF5k8zv2oiod/ue3MwuFt1e0JdMPfum+EVl5N8gs9trkBa2+xhBMULvRaTv5FPMq7qBojooIv82WdB3KqlUFRXoQKYEsqjvZOaFEojfkLx85t/V5IM/e0mE98kyEztyNI95zQahD1ncdxI5WcFnJEnXyY4ls4nDtCnkK1MDwm1kTjZGipm7ZRGTp+7jifGg1cQrkxFl+pIfBD3ImENPZXdLUIdsphrEJGr3CCJYE0BkvTPWfOj6ohQ1UF4K9RDrsZA4bPYiyQWMKO8h+cmyGdEwnEiOx5YsBULivagvmXxKkS9QAZnHiV1zLtGw3kliyyuS3JzflTRS70a+L+l4bPyO5JMbs9sTjRa2ZN+/FZV7Ibm/zITYKaZI4rO4L5lUsSIV8j3xU3cy3ngQWf3e8YjvDwLSY8wh8rTER8Qxx8jM0Y7kj/BiPUiyQ4n7lC6kMb8XmXs++X0ZFMcSj4UOZLNXMnlvxp+IZTMNYjjxOCltRpa+LI4k24cPJi4Pa9Zx2TanqkAIf+8A5PK6QWDdFuV+qfYAWJtqoeDJSXh45TNClmj8B7tCUhF7cQ4jqKvUPx3knZyO4RtDZH3K6tLw7M/VM4XdfGfs/v0wtozrXH6osgTSlBNYscoPA1evhECbEWoPwvIVAxGwYhGOJMoZB1US1dlMRWRexMZ9arCf2xfspwUbYH0hDoP71v04tucX3Ehh7N2kD76dPAAk9jQ2HvhH1o9VPUJ/bwTk8tBNYI225RWJAdam0Cp4gpMeXlBMkxr4z64QpMZexByjykq/6mHte9IUnFixCn4DV2Ple8fDoOUrMDBgBRYdSWSmcjJxfuMZGLpsxYQexWP7XH5PTP95OyZrR8Bt/hpceVUklpnRHVv3H8OeX27gvRm/xeQBBLGnN+LAP0pYkdcV3zi0gYeLB5JVVxWUo5z5lUJWkH380oBWA2DVQ84wmyQN8c/yQDhqUGvEYYTs0dDWRhPVfNOaox7qQCoS4Y1IyLyqBg3R/hoG6NCxJbSqrMekSDz9O65m9oS5uRYjK0bLSgDTvL9x+FQsJIysuqjMZipBitRzh3G7x1iMVmQOuyGWF44W9PW1IHmdjbyCtzOXXDRqpAYuh+B1bi6qN58pDzHCfPyQhlYYYNWj9HROERKkxT9DHuFATa0RFNakhja0a6PiZel70sTT+P1qJnqam6OU52lZQWCah78Pn0JsoeMJA/D39UtYazMKB4sEDM1t8LkFX9Ym+AsX7xf7FEdLH/paErzOzsN7MzZCIzUuOOQ1cnOVs6LOyLEYEHwEnjGqqgnKoxJLSZN9cTdKAr65NfqVmBJ9izTxCq4FidGo8xhMtJLzhgoQv0pEdGyGrB1f9/mYdfBx2z8P932DIOQboEXZKUB1AxjoFCDk7n3kMKK6gxR5aTGIS69OfzEDV8/dhZGNDXQYCRsaZHnhGWHB9RS8Sr6MOZ3eRiEhQoIjUcBtjaFf9Hs/Z60qpMnwvRsFCd8c1vIViSvXgiBu1BljJlqx//viV0iMjkVGHa948+77IkjIh0F5x4OBgQ4KQu7ifqHj8drCyFALXK4s3JVq0fDQRKsxONJc5GQXB1me0QJcT3mF5Mtz8N6MIQiOLAC39VB8IU/PbNASYMhnYbh4IV5lDfuyqCSYZ/v6ILhAHSYCSzRjZO8QxePU2u3wbmyJtYdcMJjVeo9XCHBbCae9l3Bj73iYTzyCGmzQqISPWQcftf0lyYhNyAOa8sEv2/XhyGRaHLxJiMGzOjMuLqsEH5/EMrsvMW/f3/C+sBVLf3TH78vHwfFkIvMOluT7wzdID70/a6lQRdJgywuvMbQav+9OSmI9sOvPl/hsgRs2jKyBpdvZvvAJLoC6iQCW5RWJ+FNrsd27MSzXHoILO0XiVYAbVjrtxaUbezHefCKO1F3HQ3Jsgqwp3RT88o4nk2mB8yYBMYWOp2aMZbeS8TLxIr7rWKK7L4lBcGgGiHoPmPR+H6R5jbXw3owSxHrswp8vP8MCtw1Q3ozN8Fmfjgi/ew/ZjKQQ6fMLmG/WAT0m/I7oaqpazhiXogjh7+WPHK4heneRICmxuEKQvHmBGP/z2LftMCLaT4KnzxqM7VZ6GFI+UqT86YrTzediy6z2EHtHYfvwg/gzdgqWKzN3I03B1Y1rcfJfkUJpKGoG/8GSzfaoanFuMXVcBzVKHXn2gjAcc5yDe2zVI32OgHR1mDMvlUaShVc5BBweD7xy45gymSzKkZwsZNXgXJki5Ifsxhjbffhk7x0cGt1aFoSlSDzwX/Ry8cLAfT8z72KH5FkEol61xcTOilQjDby8SNPh89tenA0Iwz3vaHRa8zf+N6cftFXSbSqN0N8L/jlcGPbuAklSIoo0KXmDFzH+OL9vGw5HtMckTx+sGdut9DB0BUhT/oTr6eaYu2UW2ou9EbV9OA7+GYspy40qWTNSgLBjjpjDXpF4HpAO9eo7HrJe5YBwZD5W3vFksiLHQ9Zbx1PTQtMyxTTf3x2eQQQd7JdjRpfS31+a7oPf9p5FQNg9eEd3wpq//4c5/bSr0ftVQ8dObSE+9xhPZe0LM+a7kIxIBEUkIjo7DMmyYF6d6r36RUwcAV//NBC+LvIDT8DDw0N2eeLkZX+k6AyD87VwhF1yZemYMvLvwc3LEHPHtS+qaLKeRCOV2wza5VpfLOEawMxuBhwcHBS6ZtgPRke2dVRd10FNUleendsCvYcNx/DhLK/PB6CDrNdcfaSQVNii5hSN6hGxuMaG1hQi3w8bpq9CQL9V2PhVYSAvhAsdfR2o8YxhaaVfJClGiIQb27HhjycVfnfxs0SkqunBQJFI1dDLi6y+sfpuPXYeOIITv4xH5vaxGL3sLGJUvvpNjAhff6QRPnTzA3GiSI8e8Dx5Gf4pOhjmfA3hYZfgyjKQyxSJe25eMJw7Du1l5pRmPUF0KhfNtPmlR6bLwUWL3sPk60zu9TkGdJD1mplPVwdpxY4HTrHjQVzRW0Rh2OP0K1LN18Bj5ygYlCnCXAMrfLd+Jw4cOYFfxmdi+9jRWHY2plqLGDX0DcBPe4akEqN0vO5LcfHhfQR6bYKguhvLMKvalUYSv5vYaHBIky/cSGq51IiKqTDVRJxGnqW8TXLJJeentiDqZutJWJnMhLqUmqasDoqQlybCUgesUiMkKeTKBgcydao9sbcvfU206kD0e/+XTCkjt7efSr5ZcpSEv83NqIRae/aS1Eiq0VvEJMp1AGlUUXpMwQOyulcjwjOcR26VzTwR+pLFXdSIWtel5O7bR6o1m0lIivsoosPTJxNOZTGyQoTkzsLORN3oe+Jd+B0lL8it3UvIkuVOZFwvTdJ5wZ0KU87eXJpBWrewJ+dYZIy9pbbqi1LUaHkpiYQk/WpLtLmNifGSOySHkRbqvNqpaZJ4sttGg3CafEHcFHU8ualpYpL2LOWdrXPPTyUt1M3I+soVWSOpae+pzPcKyIPVvUgjniGZV97xiO/iLkRNrStZ+s7xSvKS3F7Wl3SwdiZeGSx0J0kiv9pqE25jY7LkznsrKppmmn9rHjHk2xGPapi9MqrdM8/29UaQSA09raygX+3fJoPXAm1aMU0UURC8/LLQzkKAT6sx/FDT1GkdcPVh+n9TMW3atHLXJMsO0O31X0yRc2/q11Zoz2Jk4qO3v6yHp6/LARHm4w0jegcRQigi4OjoQV+R718jNsvGzUu38UpzID4fUmKTDMm/8L6XiGbmApgWqp2rB5uF27Bt81rYda28q8DhccEVyZ5RgSmEj6u8cNFq2FD0UctHxG+7cCaDEauCbF94B4mg1tMKVqpRJFq0acWkF4oQ5OWHrHYWENRdx0MLfV1wZD6WX97xIBSKQDg60CvnePkI+2UGnKKn49zldRBUulshA7cVhg3tA7X8CPy26wyUNqNUCmnhdBzzUtVUsxQI8cA7ADm8jrCwqjwXVxkkMd64F8eHuUCRHNYySFNxfdMcODjMwIwZbC8HzHTyxGNWi5bqug7U0KqXAEOGDMXQoaUv6y564LczKScfOnQIBvfryGK3onpg/5qG2xLG3VqCk5mO9LKJvJJ0PH8JaHfpjrYKKacGbFa0UO81eF3N0K9ELJc+94ZvuBr6WllAk5GxhaOjA35BDnJYJzA33PKSe2slzFq1RO+555BWonHD1TeALk/W2HsdX7wYS0UIH3gjIIeHjhZW6Kx6RcoaeHHgyxp4feuu46GlcTe05GQivbzjIb3Y8dC9lONJkHB6EVaFToDnifkwYZxFHHoKp2QNI5kVcWulGVq17I2559Lw3oxc6BvogleYYhiv/GJWkpOLN0210VzV9mKoXjAXP4aPXyqIjjkERc16VSLFC28fhKmZQTCI3UpMuXB18ZntREyePFmxa4wF2rGZM68POqgpPuZnf4cG+n8xBC0kzxCXUNrLJc9ikZjfHNbDrVDrT8DhoxmfA27rdiXKtUzHN27ggaQHLK0MFK4M1Dp0QBvOS1llynJFQIMtL7K/HXwPoWnp+PfRv8gssdBWmpGBTAkBt2kndK10qEuKnPjHiM1ko0sxHvv4IZXoyBoupipvuEhfeMMnTA1mgkG1X24rQaP/FxjSQoJncQmlN1GS+WJsYj6aWw+H1bsHkOLl7Q1wDhiOn3/5Gp3eKU2CxNs+iCos/dIXCL4XirT0f/Ho38wS+wJIkZGRCQnhommnrqxGLMsjRXZqKl63MYRhqc8X2j0CMazsXjnVCuaSxFvwihRDw9QSFoo266vkDe76BKKghyWsyq5OUAj1Cns5FV9se6b1RQc1w8fx7AQiUYHsZ4Hsp/x0iOYj52N2nxhcOR9ZolKR4OnFq4jsOQdLRukyslqE+wlGfjUIWinxiGe+ZF7YIcxzvoycwuFUJZbRFu7UZdIuEVFRhfqpmoZbXrhoO9wWlqYzcNTDEd3eqVKCmHMX8FCsiV6zHPFVJcn4ksgdsDU2RreBS3HnNSOsCEkibnnJypqGKSxVr0i8ueuDwALlGniqpQrfaz4S82f3QcyV85AVq3dInl7E1ciemLNkFN563uvgXZg46zxepF+E88y3I7DfYNrkcZi0Px2dCk9B4bbFcFtLmM44Cg/Hbu9HjiQxOHfhIcSavTDL8SuF9lR4jxiRkfHQ62OKUtlxRXbvhZ4jNiG0dF9AYZSwlRTPr7rA/usxsLXbgRANPtSjDmP2JHusPZ8ku6siRP/A2y8b7QcJqrVcv2b4mHVQB5+dqwW+mg9WmnZH9+4srz72OJ6uWfFOYbm3sHn6VNhPGI1vfn+KJk1icGiGHSZOnYrpm26W3gRG3QxOR3ai++X5+N4zGM9z0vHo1DLMPtUGm91XYUCd6N7wYDTvMI6OeAJXx7VwXrcKG6/nQr+ZrE58O1+uKOp9YD2QhyD/sNI9o1J8HOVFzdgRv63Sxckli7HtxC0EPvoHN3/7HlNcH8N43lGccbGsdFU5p1kbdGipA4OCENwOk79mWvr8Klzsv8YYWzvsCNEAXz0Kh2dPgv3a80hSnSLxj7cfstsPYtHA40KLrwaflabydSb36gP74+nQrGxnOda+pw4zpyPY2f0y5n/vieDnOUh/dArLZp9Cm83uWPXW8UT3sX7yStz4NxiXjrjD3f3tJfMHz3P4R60TuhS1idRg7PgbVumexJLF23DiViAe/XMTv30/Ba6PjTHv6Bm4WLLMsiiLJAF+gdnob9O/1OY9HH5rtDNoCo24EARWd2ep4nVwH56qDk4Qh/9IzNT1yeQzuYykNHXxoBWlqOTQg6p0oOhqyrJku48mfZ383x0o8MGpzrPXRd48I35n3MiOLdvJgdP3SIK84l2HbCZJ2U8+b9KEDN+fUv6wE5JH/hjbvNLV7IW8uTmPdOnnQh7VcCGqbn3xwciJIfcuepADO3eSAyeuk4C4bDm6rXg1e+7pdWSDX2UaVwGV+J1MkeRHM3WiP/kMqT+e94Y88ztD3HZsIdsPnCb35DqeYuTE3CMXPQ6QnTsPkBPXA0hctpxV7wr4siR2NxlqaE/OlkwkeYeYhG/7iXiWPIRKCWp3FKUU+UiOikFmUQtTgujL1xDe1BojrJVsCdVLPqwONLpYYqTJ23zj2qYB2L9xG5jbfYdFyxZj1tiBaFfVaZ1KoKzNpDnxiIzPZV4V8+rOLfwj7YPBg+UPpxZuskSK/quYxoJZmK5xEccCPvTen3W0vDQ1xMAvJ2GWoyNmfT0c/TrwFbCVCKH/EnStIotA1eQnRyGmWJGQRF/GtfCmsB5hzTI/vS7QGG3M7fDdomVYPGssBqrA8ZoaDsSXk2bB0XEWvh7eDx341aklxQg/fhrZE+dhRJnTVovJRrhQEz2qOWNSN+px2cOGbrTBp8YCLP9LCGnGdWz7NRrmTqsxVo95S4Pnw+tA3WIx1o9vVwcKAbU/W5SymdAbS80+Re//uiLw7Xj4Kx9s2nID+tNXw6HU7ldihBxfh5XLHHHoEQfZXruwdMUqbL4Qw9wvg1ovLJTZzn/7ccQXx4MPQMMsL5K4E/hTYoMRbw8A+wCIQzfC5lNjCJb/BaE0A9e3/Ypocyespo6nMqRpZ7HlWnesW2oua3aUR/L0T4TpjkRPpRbWvaeOBHMONLW1odtlKIxfumGh/Xa8mXcWZ5aYqP5wgjrLx6wDav8ahaMBfjMddDJpg8x7t3HlmCscxqzCv//ngb/22pbZ/UoNfaa4wHXrQdx4kon0kPPYu3kjVnzViblfHi2rH+Da+wpcPOJkfeQPQQMsL9IknD0Uh6GzBB+0R8zR1Ia2bhcMNX4Jt4X22P5mHs6eWQIT6niqQZqCc+s80Gr9JoyQt3JOmoDTx7IxbHLXaqdqcgrH2pl/f1DuLOyGmcE9YdKaDwtHNzgO5CIj6gHCXzaDUe/u+ERLfjtDHH4Ijj9eR9qLUPi1WI9Ez3HMnXqK8A4W9pmJ4J4maM03xz4niyp1IFMCDjn+iOtpLxDq1wKPEz2ZG/UMZZ69vlLbNhNnITY0DLEZQvCatUX3Pl3RQpUVtiQBF9ZsQMTIzVhppdx638pQtr6oW4gRfsgRP15Pw4tQP7RYHwXPcbWwOrKU31nAY9sIPAh/iWZGvdH9E6260sOru7D25TwE7l6EY3pLsXVKlxrf+6DWgnlOfAgep+YXbZSvb2SKzmx24ikkJx4hj1ORTzjg6RvBrHMdSPupFjmID3mM1PzCwzr00d+sMyOvDGU+UxdpKM/Bho/hWfOQkcGBnp7qA5TS9UUdo248x8fkdzUBW/2J8PKlENq6iqybUJ5aC+YUCoVCoVBUAx1RoVAoFAqlnkODOYVCoVAo9Rw6zK5iJEm3cD66B8ZYt2IkKkYShZPOe3DnhRQcTTPs2+HA3GiAsH7WLNw/dx+tbEfA8MOm6KqcqJNrsefOC0g5mjCbuQkOJmweSCL7nLMSn6NQKA2FjyuYC1Pw6H4QolPS8OJNewybNhSG1c0HKIE08QwWrXiE0T+vw+BKF7bkICEsGhlCqZztLLngafDRsoMhWvPlfLnClajmrtBxXoD+mm1gO9yEuaEoIiQFeiE4TVi0OQg7OOBpd4WlpRH4jKRGkWYg3MsPsdmRcF/1EGfCPZgb5ckL3In5v+th9d6pKNxmudbJSUBYdAaEUjnJ11weNPgt0cGwNcqa+M7Cz+Cq44wF/TXRxnQYTFqzGTyTIiPcC36x2Yh0X4WHEx7AozZWSVMolFrjowrm0qSb2H/wHM65H4C3wRoE+jujt6oqfmEwto5zAc/1NBYbV/FL8wJxfOcFBIddxm+nQ/DacCTmTzJDs8J6m4iQnfIEAbf8kNltCtbvcsEYoxI5RIXBfJA7bHyPYHSFGx29gv9+J+yNG4bjm+0YWRlE/nAys0dgP2sYsp1sIS8Q+D9NrI7wxFgWsUKUcAUbFl+E0Z79mPqJnD8iToaX2w64+8Qh+7UQ0O6MAaO/w6zRPVBqoySRDxZbuGFH4HFGIA8J4o9+g3nRs3Bi/SBWh+TUJHmy77rzQjDCLv+G0yGvYThyPiaZNSua1yKibKQ8CcAtv0x0m7Ieu1zG4K2J7yw0g7uNL45UbNxiXvljv9NexA1zxWa7doxQBJ/FFnAb6I3jNJhTKB8XhcH8o0LoT1b0UCcd5v6P5DOi6iMmUbtHEMGagEr3sS5L5nE70pyrQax3xpbfvznzJpnftRFR7/Y9uVlyz97K9lV+S/4NMru9Bmlhu48RyEF4nywzsSNHy28PXTFCH7K47yRyspLPSJKukx1LZhOHaVPIV6YGhNvInGyMFDN3SyCOIcdmjiaOf4SToseTZJNQ9ymkS2M+6TX3PEkuqRC2eyCLI8n24YOJy8PqWFZMcjNekKx8OXsxK0wmOW7XnHA1rMnO2PK/L/PmfNK1kTrp9v3NYh3IqGoP8rfk35hN2mu0ILb7/mUkhVS85zeFQmnYsO2TNRgkST6497QJ+luZqW63qMyL2LhPDfZz+yqwMYAQ/t4ByOV1g8C6bfmViNoDYG2qhYInJ+HhVfbw/SrQ+A92haQi9uIcRvDhKDwW026+M3b/fhhbxnWucFejzPMbccbQBVsn9Cgesufy0XP6z9g+WRsRbvOx5sqrovcpBK8rvnFoAw8XDyQrtLXoa8Re3w2n7x2xaLETvh87DjPXLsei7xdi8QZPhDD7ViuM0B/eAbngdRPAum15V9MeYA1TrQI8OekBxU28CyGpsbg4x4iRUCiUj5mPLpi/8vFFCMcElhaqmvWVIvXcYdzuMRajWc1vMojD4OOXBrQaAKsecoblJWmIf5YHwlGDWiMOI2SPhrZ2xcd71iQaBujQsSW0Kl2LIETA39dxaa0NRh2MLbEFaHPYfG4BvjQFf128z8gUQ2fkWAwIPgLPGJYbi75+DI8VjjiYZonlO3dh546fMGOQOeyct2Hn7j3YMLE5rq1ZiF2+GQof1ykO80Gxia0g38TxeJZHwFFTg+Im1oC2dhOajkKhUIpQTV0gzkHyk8eITslBNc9Xr2Hy4SfrDed3HQSrT7gQZSXiSVQ8Mqt14FMGrp67CyMbG4UOrZcm++JulAR8c2v0kzNEIE28gmtBYjTqPAYTrdiPIYhfJSI6NkMWLusyPLQ1MoQWlysrgKWjGK+JFhpzpMjNyWYkCqIlwJDPwnDxQnzV+4RLk3Bm3V5kTdoJ12l9IW/NYpPOtnDaswIdL63FvhBFus9SJPveRZSED3PrfnJGgaRIvHINQeJG6DxmItibWIxXidFF27JSKBTKW6oVzPMjjmHxtFlYt/88fP7xxdndzvjFO5O5WwcRhcD7/gsY9NLDww0r8NOhv/Dgnju+GWSNH25nMW9SkHx/+AbpofdnLRVSZravD4IL1GEisEQzRvYOUTxOrd0O78aWWHvIBYNZrWV6hQC3lXDaewk39o6H+cQjYNs5/fCowXjZLSS/TMTF7zqWGIqXICY4FBlEHT1MejMyRWmGz/p0RPjde6i8OSBF+vlduGu2FnP6VHG0Ba8dRq2zR9ZvvyKStU6z4esTjAJ1Ewgsy1lYZuJTWLvdG40t1+KQy2CwM3EA3FY6Ye+lG9g73hwTj8RU3WCRIX1+AfPNOqDHhN8RXWfLBIVCqQ7KB3PhfTjbu0Fn2S9wWWCPryeOwwB+CPb9fAU5zFsURpqCqxu+xbRpUzF1KttrGmYsOYZwFkMCkmc+uBsthjA6Ba1mucJl8beY/M1KzDOLxY4tp/BcialRybMIRL1qi86dFVkWL4S/lz9yuIbo3UWCpMREJMquuCdBuHVsHcb2E2B91gR4+lzD2kFyD8AtgxQpf7ridPM52LJmLhxG9UTu+YP4M7aKmrsgDMcc52DOHJbXgp24k67k/HE51KDVtEx3VNYwcvcMAukwCctndGGEiqKGjp3aQhz9GE8rKxOSOJzw0sbUMSzPBm9ijpn94/DHXZY9YqE/vPxzwDXsjS6SpCL7JibG4UnQLRxbNxb9BOuRNcETPtfWgp2JU/Cn62k0n7MFa+Y6YFTPXJw/+CeqMnEhJCMSQRGJiH4YhmQazCmUBonSwVwUcArnorWgr8P8CkkWEpOb4Qu7AeV6GZKEq3BddQghIkZQEVwDmNnNgIODg0LXDPvB6MgilmYVzpejG6Zt/QG27+a3xcjKyoFY+Ebu0LQw4Qa2b/gDTyqoBMXPEpGqpgcDbQVUKY6Ar38aCF8X+YEn4OHhIbs8cfKyP1J0hsH5WjjCLrlibDeWhyHm34OblyHmjmsvM6gUWU+ikcptBm1+FROx3BboPWw4hg9neX0+AB20FJ+/Z4cIYXuc8GuqOdZ47MSo0udyKoSGvgH4ac+QVFkwf+mNeO2hcuey5cOFwefdke8dwbyuHHGEL/zTCPi6+Qg8UWhf2eV5Epf9U6AzzBnXwsNwyXUs2JvYDV6GczGuvUwv0iw8iU4Ft5k2qjJxIbzuS3Hx4X0Eem2CgO4lQ6E0SJTOMxeH/4RBfdfikZ4JbIYKMGjIWHwzZRA+kVM5igL3YP5xXSzeNgXdFOnAqpR8XHbohDFBMxEQ4II+b7+H6B6W9rLB2WHX8fhnG2ZuU4qM2z/D9UoSGiVcw+6Hg3EtYg+s5VSE+Zcd0MmhAPvij2JUFanBb5Em7MF/ujjC3+YAYq58h5aKxC15eeaS50hK10abVoVfMA8XpnXC+Ij5eOi3FsYVLUQT+WH5gK3o5XsG9mxTkkW+WGKxH+beHhhf5WckeLLJEj1/IHAJvYuVXStdEYfMO8sxbHoAvjx6FmsFuqVbmazyzN8jvD0f3b9KwYbUM5hUwfcUh6zHxB/z0eezsm+QIun2HWRbDUH3smVV1pv3y/gKl/d8yQgqQoqEPf9BF0d/2ByIwZXv2E/BVJRnLnmehHTtNig28QVM6zQeEfMfwm+tcYlpCppnTqF8rCjd/VEzXgL3Q9/DRj8V3p67sWbGYJj+d6/c4W51s4U4uKs2A7kMUQh87mcUrSwu+T3EoVfxd5wuBJ/3L7FIiQs9m4XYtm0z1tp1rTTdjMPjgisSQqjA6HO2rzeCRGroaWUFfaUtUAJeCyaQyxAFwcsvC+0sBPi08vhZZ8gP+wUznKIx/dxlrCsbyJVBKoWUx6v0sH9OYy207zces8pNJ3yHr0z7YMjMsnLZNXMouvM1md9QGdnw9Q6CSK0nrKz0q/88MngtmEAuQxTkBb+sdrAQfFrpM1IolI8H5eoZaS4yXnLQY9JOXA1JwsvkIJxcYo6CWwdw7GHJsfR8JAecw9FT95HMYk4b0lRc3zQHDg4zMGMG28sBM5088biK3y9J9MbdmML88pIri0V4ePocInWHY/QQLdnLTLzMUWxOmKOjA35BDnJYL3QW4oF3AHJ4HWFhVXEetrJIYrxxL44Pc4EiOe+1hyThNBatCsUEzxOYb8Ls2yYOxalTQcX/VgKSk4s3TbXRvBLl8trKAmFGAjT19KBX6tJFs8aNoaVTVq6H5rL3o82nzG+oBOEDeAfkgNfRAladVW5hxHjfQxzfHIK+9cHCFArlQ6BUMP91VCe07joT55kApt6iD8avmwXrpnrQ13tbeUkQe3ITDj79BOTCBNj/UjKfuAK4uvjMdiImT56s2DXGAu2q6PUXzpc/4phCYFkiv1z0D05fiEarLydgmCyOZJxxxe6HBcxNdqh16IA2nJdIT2e5skj8GD5+qSA6ssrYVNWVsRQvvH0QpmYGwaC6P8wqfXkbG5wDMPznX/B1p/e6kCTehk8U80JhpMhOTcXrNoYwrKxMaFnDknMbV1ivehTi4YUUGH7RlnldMeLHPvBLJdAxF0D1Jn4Bb58wqJkJwN7EUuTERyAmk65+o1AaKkoF88i0trBz+rbEYhopUi7/hSTb+Zj89uQSUQBOR/bGwjE8/Bv2Gs11m7LohaqjVS8BhgwZiqFD2V5DMLhfxyr24n6N+7LesLCbJQQlN3bJCsGjOG0MsRWgiTgCHv4GGDWwzArrKijc8cykXSKiotg1AiSJt+AVKYaGqSUs2IzYKsQb3PUJREEPS1hVYwGZaiAQiQp1UiD7KWdZxutg7Jo4C+dfpOOi88x3Iy3fTJuMcZP2I72TsjubiREZGQ+9PqboWGmBaw7b6Z1we9cNZLCI58JQN7iLR2Fqp6pKsQSJt7wQKdaAqaUFVG/iu/AJLEAPSyuwNbEkcgdsjXuh54hNCGUzQkahUOodStX485Z+iRYZ/rhw4RquX/TEz+vmYqWfDdz2j8e7WKk+EMvX2aGJ72GcfDEck780YG7UAuJoPAjOQjtBmUVNetawFeggPegkdq5wA2fSHCh8cqR6H1gP5CHIP6ySDXOkeH7VBfZfj4Gt3Q6EaPChHnUYsyfZY+35JNldFSH6B95+2Wg/SACjqmIOVwt8NR+sNO2O7t1ZXn3scTxds/Kd5XJvYfP0qbCfMBrf/P4UTZrE4NAMO0ycOhXTN91k0hZFuL9+Mlbe+BfBl47A3d393XX4qCfO/aOGTl2UDIOSBPgFZqO/Tck1EPLhdZ8Lp95/Y+UO30oDev7j43DaB3y7bHDFjUbpc1x1scfXY2xhtyMEGnx1RB2ejUn2a3E+SWUWlpnYG37Z7TFIYMR6iobDb412Bk2hEReCQKXzRikUSp2maId2ZXiTRqIe3iW+fiEkNrOAEZYli5yb2oZ0mv03yRUmkbgkRY4hUSUSkhEdQRLknT8hfE4eBwSSp5lyDgORkffHWNK88wJyp5Kv/ubmPNKlnwt5VJEaVEklB62Iw38kZur6ZPKZXEbSQGB70IoMSexuMtTQnpzNYgRVUkASrm4kc2atIW43okimWEjurnEif8jKyptnfuSPjd+TmSuPktAPpNLKD1oRk/AfzYi6/mQi38SVHbQi++y2n4hnyUN7KBRKg0H5sdjGLdDFxAKDzHujo3YFk5O5/8Ppv5pj7DQB8i/tw9EntTXGx4Vu5+5oJ2+OUd0A3fr1RSftCvo5hZl7hf9XksDXWDAL0zUu4ljAh95iMx/JUTEoPgdEgujL1xDe1BojrFkmLzc4xAg/fhrZE+dhBJuNWIpQQ7sRK7Fv10wYp1/C1uVO8ExMwe0flsD5cCi0RzvjwEZ79KwtleYnIyoms3j0RhKNy9fC0dR6BBQ3cTbChZroofJxfwqFUhdQPpizQf0TdG6vjQzvLdj81ALfCupP7qs45DjWrVwGx0OPwMn2wq6lK7Bq8wXI3SJVrRcWbrSB//bjiFfdiGoViBEq+5ufGguw/C8hpBnXse3XaJg7rcZYPeYtHxnStLPYcq071i01B8uU//c0bo9BE5fgp+078PPhw3Dbth2bVn+LL7pp17CTVII4FBttPoWxYDn+EkqRcX0bfo02h9PqsVDUxJKnfyJMdyR6VrFQlEKh1E9qOJgPxHrfy/jxmyXYsnzk+/n0eoBanylwcd2KgzeeIDM9BOf3bsbGFV+hovVPWlY/wLX3Fbh4xFW9al8lcKCprQ3dLkNh/NINC+234828szizxKTKueIGiTQF59Z5oNX6TRihyIk3dRmOJrS1ddFlqDFeui2E/fY3mHf2DJaYKGhhaQJOH8vGsMldaV46hdJAUXoHOIocJAm4sGYDIkZuxkqrGooohTvA9ZmJ4J4maM03xz4nC4S/bAaj3t3xiVY9ai2xQRyOQ44/4nraC4T6tcDjRE/mRlnyELh7EY7pLcXWKV3qRX59RdxZ2A0zg3vCpDUfFo5ucOyXg6gH4XjZzAi9u38C+SYWI/yQI368noYXoX5osT4KnnQHOArlo4IGc5WTh4wMDvT0aqoyzUF8yGOk5hNweProb9aZkTdE2D6rCC9fCqGty6+9IXEVkRMfgsep+SAcHvSNTNFZ3rmsclD2cxQKpWFAgzmFQqFQKPUc2nynUCgUCqWeQ4M5hUKhUCj1HBrMKRQKhUKp59BgTqFQKBRKPYcGcwqFQqFQ6jk0mFMoFAqFUs+hwZxCoVAolHoODeYUCoVCodRzaDCnUCgUCqWeQ4M5hUKhUCj1HBrMKRQKhUKp59BgTqFQKBRKPYcGcwqFQqFQ6jXA/wMJJWgzUWObAAAAAABJRU5ErkJggg==;" parent="1" vertex="1">
          <mxGeometry x="-485" y="971" width="320" height="44.89" as="geometry" />
        </mxCell>
        <mxCell id="DjFTVbm2SqqyD_zfQVQ5-37" value="" style="edgeStyle=orthogonalEdgeStyle;rounded=0;orthogonalLoop=1;jettySize=auto;html=1;entryX=0.5;entryY=0;entryDx=0;entryDy=0;" parent="1" source="DjFTVbm2SqqyD_zfQVQ5-31" target="DjFTVbm2SqqyD_zfQVQ5-34" edge="1">
          <mxGeometry relative="1" as="geometry">
            <mxPoint x="-3.7999999999999545" y="977.44" as="targetPoint" />
            <Array as="points">
              <mxPoint x="-105" y="931" />
              <mxPoint x="-105" y="931" />
            </Array>
          </mxGeometry>
        </mxCell>
        <mxCell id="DjFTVbm2SqqyD_zfQVQ5-31" value="" style="shape=image;verticalLabelPosition=bottom;labelBackgroundColor=default;verticalAlign=top;aspect=fixed;imageAspect=0;image=data:image/png,iVBORw0KGgoAAAANSUhEUgAAAhEAAABXCAYAAAC6ABdKAAAAAXNSR0IArs4c6QAAAARnQU1BAACxjwv8YQUAAAAJcEhZcwAADsMAAA7DAcdvqGQAAC/ESURBVHhe7d0JXMz5/wfw18ykVNLdsrmizU+uLREhYa3fav9LjnWkLDlrHbFLLLklu3ItNn60jlqEcq51V47YFqmoFaWk0n1pZpqZz3/ii46Z5jBl8Hnu4/tYfWaa5vv5fL6f7/v7/X4OFhEDRVEURVGUgtjM/ymKoiiKohRCgwiKoiiKopRCgwiKoiiKopRCgwiKoiiKopRCgwiKoiiKopRCgwiKoiiKopRCgwiKoiiKopRCgwiKoiiKopRCgwiKoiiKopRCgwiKoiiKopRCgwiKoiiKopRCgwiKoiiKopRCgwiKoiiKopRCgwiKoiiKopRCgwiKoiiKopRCgwiKoiiKopRCgwiKoiiKopRCgwiKoiiKopRCgwiKoiiKopRCgwiKoiiKopRCgwiKoiiKopRCgwiKoiiKopTCImLMv9WAEEkHl2Hz5VyIWNqwm7IWHjaazGt1ECbh4LLNuJwrAkvbDtsCPJgX3k/CpINYtvkyckUsaNtNQYCHDfNKXZTMO3XzgZWlLMqV9ftDmHER4cnWGNGvGZOiYh9CfVGTffjQ62K9k7scC3E97DqaOX8Fi/ewia6p/oMIURlSr4Th6IU4ZBSVoJTfBBb2QzB6lBMsdJj3vMbD5Vn28DNchpk9tGFuOwg2zeW4WSLKQ0JENFKKExG06BaOJAQzL6gLEcpSryDs6AXEZRShpJSPJhb2GDJ6FJxqZwJ4l2fB3s8Qy2b2gLa5LQbbNGdeqYsIeQkRiE4pRmLQItwa8zeCR9X+7Ian2L6Ldx6z7P1guGwmemibw3nwWzRk/AzERNxBNo9A7krO4sCgfR/0sdRjEuqXKC8BEdEpKE4MwqJbY5AQPIp55f0nSj8C7wV34fLrUjgZyXvT8yOsL/XVfinU9irb7kjGz4hBxJ1s8BQ4vbA4Bmjfpw8a6NBTPQXKsSxmA77fZYyftrjDUoNJfE/VYxDBRcrp9Viw6k+wBk3HnKnDYW/eGNysOJzZvgA+B7Qx7ffd8O5lWOWZSmUQ0RtB/a9gj0tjJk2SItzY7oMtqYOw3384kybGj8Jch0AExOxnEt49bspprF+wCn+yBmH6nKkYbm+OxtwsxJ3ZjgU+B6A97Xfs9u4FwyptbOXB3DuoP67scUFduYCiG9juswWpg/zgP7wlk8hH1FwHBPaKxP53HEQos+8vTgq9g9D/yh7UXQUk7Xt1/Bs+sHOLQfd+FnI/tyO5MTiv/RNSQ0YyKXXgp+HUqrk4brkZ290/lfg3BGkXsG1LGB43Nkbj0jzwLIbD23MAzGs0HPyouXAI7IWY/R9IEMG7g59HLQfHLxRzO8rXSn6w9UUcnETs3oHTaSJwKgqQ+ZSL1s5emDnaBsYc5j2VVNZ+KdP2yt/uFN3YDp8tqRjk54fhLSXlFB83fOzgFtMd/SzkzknkxpyH9k/3EDJSdrvFTzuFVXOPw3Lzdrh/KvlvyHvsCZ5GIDAgCFGpxXjOAwza9YTL1GlwsdZn3sFQaTkK8XjvRHglT8OBFb3RhEl9L1UGESonSCPHvXuQZlZjyc7YYiaxqlJydX5n0ri5CwlKETBplbjk0sxuxP1oOfOzFNxzZHorLWLmvI1JYPAiiXc3V+aHd01A0o57kx7NrMjYnbFEYi5cnU86N25OXIJSxO9+g3tpJunmfpTIyAVxNkwnrbTMiPO2B0xKJR6J9O5GXA+VMT8rSkDKy7jMv5Wl/L6Ld57M7OZOZFcBSfteHe/6j8Rm+F6iSE7wouaSbuMOMj9JIMwgZwLmkekeE8j4obbElN2I2K9JrL4PDMHDIPJtx97kp4gCJqWAXPF1JNYjdpOHNX6BF+lNurkeYn5SnKC8THz0qAsBSdr0FXFcfFNcG+XxAdcXQQoJnuVB/COekgomqezWatKnqRaxGLufVGv+VNF+Kd32VmalPO0Ol5yb3opomTmTbQ8k1fpKPHL9RxsyfK9COUmi5nYj4w5K/x1hxhkSMG868Zgwngy1NSXsRvZkTaLk7yDvsSd4tI9McZlD/kh4mVfC4jgSNN6KNNbrTDzDnxLhi1Sx+ihHQSJZP9iJLL+lPkeuMlQfRIgb2cMeVkT306/JtgTpmSNM20IGamuQtl4XqlRaOYMIMW5BASl7XcIMtQkihCTjsAex0v2UfL0tQXrjLkwjWwZqE422XuRClV2WN4iozK+CgrI3Ff2FtwwiSoPJ6D6+5M6rI0Vhb7fv8p4UJO97dfVyUhD/3WepKSSrVEAESX6kZyMpQYTwKdk/sjlpNfm0uNmuovQU8WhpSr7ZlVbtu79dEFFKgkf3Ib7KF5pq5R8lE9r/H9n5tK7SeeXDri8Vd3zJ5400ifm3e0jaqz8uzCbbv9Qk0LAmC25UCbPetv16q7a3MivlbHe4BaSgVuNbVf0EEYT7jKSmZJFSgThI9etJGkkLIuQ+9vLJ4cnDyJq7NY6bwhPi93EIp8UkcrzwZVJ9lWP+IVdiNXQXyagrO9WcvPea5MTH3Q3jMXVPGb4J2Ilp1lpMem3sT2xh0wpI++sE/uYziQrQMjCAjoq/varw727A+Kl7UPZNAHZOs4bUXGB/AtuXmYATymSC+JMNDHTkvvUqFxEf/HI+eMyPinqv910uWjBt3Qaf6Fa9f1mbKD0Uu04XoJO9PXSZtBd0+8LRtgxnfz+EFCGT9tZE4PPLwVe20FRKhKyw33HJeiRc5OjP9KHXF5auCUx0hXheXIaKVw+O2Y3QSIMNFnmO0lJVPU1uuLZX3PjC4F00vlqmaN3mE8g49OQ/9ng3cfbMCSzpPww7qh6M+v3xpYMeRJl/4fj1lwdVfZWj4ZCR6HlnD0IeqawxaHAqrQnClF2YvyoCXPtZ8B3ZrO4PZzeBjg4LwoxHSFGg8RMUpSM5JU/pk1y9E6Zg1/xViODaY5bvSDSrOxPQREcHLGEGHimSCRCgKD0ZKXlqlgsf877XUHb9Cm7z9GBqVvP5riZMTQ1REXsV10uYJHUiKkP2o1TkKHNyeSEPp8OuwrJ/fxgyKVJ9BPWFYzkTZzKL8PTkDLR9dfLjxeJOYgXYzQfiv92ln+wV0RBtr7jxRXpyCtT80JP/2OO0gKWFLthscW6xXr7jJQ50dBuDJSpFSfHLk3u9laOuIwZ8Ho/jxx7jfQ0j6qxriinDeX9/nC/SRT/38bCSES1CmIOcfJH4G3DAqVaA0hThZuBC+Gw5gXNbvoX92D1Qx+Ct7Lw//M8XQbefO8bLzgTk5OSLr93Y4MiXCeJsuInAhT7YcuIctnxrj7F7HqlN5fuY9706IZ6mpImPiCbQ06u5byxxmi5Y5Wl49ETApKmDMtw/+COG/58Xtp2NxLGff8DKIPGJadQcHEwXH6fy4t7AldvG6PL5JzIbl4+lvnAa66Lx690TIiV4Iw7nf46ZgaswRCUjEeq77a3MykAs9NmCE+e24Fv7sdijtlfOChx7Gh3x48WnyE8/jqltqmSa8BHuxOWBaFrDpsub4KB+yrEpPu/aBglXr6GYSakkenYM39u1hvWYXUhW16xmqC6IKDuPkPB0iJr0w4ihMiJhMVF2PBIzReA0b4WWMsfKipB52A+h+jOwbrEnPIZ1Qmn4DhxW9n6wKBOnV03GhAnucHeXd5uASfP2IaHOdl98MIeEI13UBP1GDJVxZSUmykZ8YiZEnOZoJTsTXnzvw36h0J+xDos9PTCsUynCdxxW4W3xt6Ge+14Rvw9zZszADDm3mRsuI0eBc6ZkQhQWlYCwxI20hFaawxFnDilBYeFb/yEV4SJ20wgM8s2D2/92Y/l0d0xeOBumofMQcDoJRQqMZRc+uYekohZo107WiIyPq76IcqKww9cbk4c7YPBGbSw+ex7rh8huJ+VSr21vZVYehl+oPmasWwxPj2HoVBqOHYdTZARkFYjfN0dinkneZmLD5RxxS/+2FDz2NHTRpMZNBO6NIITcJmg9bj4m1YjIVF+OGmjTtgUEyffxsMq5heQl4va9dCTfisdTtWjfpVNJHa7Ev3sVN/NE0OjQCw4msj+2MCoStwUsGPVygq2sisy9hsAIC3iOaiX+wiIU/puMLHZTGNSKNOXENoXd8Enw8PBQaJvk5oQ2dbWN/Lu4ejMPIo0O6OVgIjtzC6MQeVsAllEvOMnMhMpsCESEhSdGtRJ/sqgQ/yZngd3UAMpmg0qp6b6zzbpg0ODBGCzn9mXP1tBVQX6KhNKPfFbl5xMBBGrSOHCjV+G7RTfRfdEaDH3Vj4FtCBNDDXA69kFf5nguTTyOjUt9MHfmbCz8JRSxlVezNQiepCNLwximBjJqwEdWX9imfTF1xQb8tucAtn5bgPUjXfDj0UdQ+qlRFfXa9ooDzGuBEbDwHIWXWfkvkrPYaGqgV/0JQC1smHUZJDHPJG9fomdrXRmfKZ+3Ovb48djssxNZ9osRvGEYTGtkZ32Uo5aJKfSynyCjShDB6fADjt+6jpiItXCUXd3fLaaD5VsrCx1DDFhsYuoeLrt3r/AZ2etiQNictsTzfNX+s1JGZwiyyZPMV71fS0m4uxnRtFtB4mt2zH3XozPKQskYAxZhm7qTcNmZQJ7tdSEGbA5p63m+Wi9iab2kBdlPyJtsCCfuZprEbkV8jZEB8ozOEJLMU6uIh7s7cXNzq76N7Utam3QhX4+vkS7e3CfOI3sTpIwAUNG+S+ttL9++V1c/ozPekD46o4L8/VNn0ohjQbwu1uwlzyNX5loRDY325Ierb3p0yzM6Q5h5iqzycCfuNcrFzW0s6dvahHT5enyNdPHmPpHM25vAfIIEwkwSNMyQcEzGkENMT/QXeJfJrHaaxHJ2pPgbE1J4aSWZ5nuMJBWK95T3lFxY0peYtfiG/Ha/en0oPzGJNDdzI2Gy6sBHWF9eE2aQnc7i9q9xRzLvcgmTKKZk+6WatldauyMg2U8yX9SBSqXh7sRM046sqNX4VlVPozNeq2t0huLH3hv55NKP3UjrfstIRJ4cwyVUVI7ci17EQm84CVYku9SI7LBVTmxNLWiy2NA3NJJ5VSFM3IXfzhRDf+BceDtV6z8rGccM5s2YcIx/GxHRhWjp4IjPZD37a2hsTWhpssDWN4TMCfqEidj12xkU6w/EXG+n6r2IpeCYmeNNNkQgurAlHBw/g+LZwIaJ7TdwnzABE2pu4/qgtVFnfD1ewmvuo9G3lZRbMe/NvjcE8VWYiRFYhAduOZP0GgGPxwdhGcLYRLFvzzaxxTfuEsplwjj0aW2Ezl+Pl/CaO0b3bcV8ggTFF3DiUhG0e32JAVXm1hE+iMS19Kawd7SFJgpwbPMexBNdmOmLv7Nmcwz4aRXGaf+JNZsvV+vkzOKwwebzwJN1X/pjri/sZhg0sCs0uPfwv41HkMckK6te215xjpmZNxPXgUp83I6IRmFLBziqXeP7irLHHhfxWyfBJ/k7hJ1cCkd5ZlhVVTmKRBBxOGralskmR07Jp5FVe1hwRCgqLKj2XEvEew5u1VtHonQEL9mEm7pfYMXGabBUMOeEj8SNW6qeuHHrxlRsJYiycGbtDHh4TMKkSfJuHpjiE4L7dfWJaGSF9hYciIoKUVA9E/C8eiYgPXgJNt3UxRcrNmKaopkAIR5FXkOqnj0cuymXCxrNOsNxwAAMHDiw+tbPCsZ6LWFTM128DXDqjjbSplZ7j/a9/rHxScf/4BNWAXJyuEzaK0LkPMsHDKzQoYWC+67RDJ0dB2BArbLpBytjPbS0qZku3gY4obvUQhN/m6cpSHvOQXu77ngTQ4jwLPIKEjS6oa+DtvhnbXzW00Z8Uua8ud2sYQJj8S8U5eVXezbOMjSEXkUJSmrudk0fRX0pxcWFdmj2SRd4hmVXaRfFQbypETgsguePH+Ft+9c2VNtb2eEw8loq9OwdobaHnlLHnhBpod5YFDcGIQe+hw1zuAjiDuHQ7coHFfVbjqSkFOVNDFAZn7+PVBZEcD4bCpfuWii8EYUX+S7Kw+XNC/CT/0asW/AT9r04+3IRt3UqFlxoBq89e+HZQb7pcN8QITcyCvEadnDsXXP4jgLYRvjceSxcXV0V20Y4oGVdX5nzGYa6dIdW4Q1EvcwE5F3ejAU/+WPjOnFe7LuPF7kQtxVTF1xAM6892OvZAYrmAkS5iIyKh4adI94mG1TqY953CbR6/BcDzIR4kpr2Yr9fEz5BSjoX+v0Go68afH+WXlPoia9im7ds+aYsxHl87tzfEFr3Qd8XD4Ubo9f8Qzi82Ol1oCF8eAbnk0wxZIRTtSmSNVq3hjkrX9yAVz17SfAx1Bfx375zLQ7ZOQ9w90FBlfU4xPuaVwAhYaNJ2/aQdnPvNVEJHt9PQYGULG2YtrdydyIRFa8BO8feUONDT8FjT4T8S6uw7OZg/Lp1NNq+Do6ESL8UhaTKU6SqylEiEYqzsvDc3AIW1X5fhJLH9/BIWqGrEZUFEeBYw3PtHHTJ2IvVQf/i+T+7cdHYG6t9F8F36ed4cOhPXFz3LUZv18KsY2cRMET2ELDaynE1KgYVrxs3ZWmiWWdHDBgg4cpN6jYATt3byJjjnANrz7WY0yUDe1cH4d/n/2D3RWN4r/bFIt+l+PzBIfx5cR2+Hb0dWrOO4WzAEHyizG6UX0VUTAWs+/St1fHn3fn49p3w+agQ/79C/P9aU83oD8H307vi0alwJFZpyYQPj+N0YifMmDcMRkzau8T+dAiG9tZF5uPHTINbhvjdXlh2suTFI0OJV6u8OGz22oKyqbuwcaRZteOYbWwLm5bpSEqqzJm6fAT1hd0Cg537wHbSXgTP+c+b29XiK/qwY7cg0O6MaXOGyphPQ4jEAGd0FF9d9/rhMpNWQ4O0vZVZGYWYCmv06WuqwhOHMgj4/BdHnvj/EiZ5UuDYe35nI8ZOC0duznEsm/LqrvNETHAdhXHbc9C2cnUslZSjNAIkJj6GcVdbVBtlmhgA546d0emrtYirFgmpH5XWBb2+K3HiqBfY4ohutH8k0oqzkRIfhbCQSzi3ewl2VEzFiZhwLOxnChTlKD5pCf8fREYXo1VvKY2bOtDri5UnjsKLvRWjR/sjMq0Y2SnxiAoLwaVzu7FkRwWmnohB+MJ+MEURcpSYuYX/TySii1uht6PlmwqtDtRs39m6etCIWgjbDh3QQc6tq9t+5GjXdZ1Viov+38HdbQxcJu7CQx0dPNo9CcPHusP9u7W48HoCKU3Y+ezBhg4n8f3sENx5VoKcu4fw4/RDMPcPwqKeanItx7GE1+978dW/fpizZBmWLlqDM6UmaAp9pj9EDfxk7POci2jnAzi77r8wq9mCaHZFv14c3L4RX/0qUJIPvr5ooOOc/2GR0UHMm/sLDlyMwd1/LuB/s8fD735HeO09guV9ZPVLYKGpeWt8YmiKithLTFpt9d72go9/IqNR3Ko3HGU2vmzo6mkgaqGtxDyTvHWF2/4caNc1E2bpRfh/5w63MS6YuOshdHQeYfek4Rjr7o7v1l7Am7nb5Dz2+NexwnUhzj24gxN7ghAU9Gr7HXtDwvCPRltYVT7NU0k5SiFMQ3RMMXr071FttlaWXnO0NG0CrdRYxKjjpHRVMR0sVYv3jMSdDSbbA/yJ//ptZN8RX/KF9Uxy6XVn2QJyytuLBGXV7AFb99oZgoSVxE7ThLgeqd6r+LV3PTqjGh55FneWBG8PIP7+68m2fUeI7xfWZOabTCAFp7yJV1AWqZULdc5hLyAJK+2IpokrkZwNb7l2RnEQcenmQ2681TIMyu+7tN72L8nad3VUTp5EHyGBAevI+t9CybU0yaX6dmtnFJMgl27E5+0KjSEkmdu/JDo6g8n2zBqlw0si+2ZNJMvPPn05yqEinhz444a4tKsrv+BFrLovJzWXJJDuw68vJY+ukePBv5ENG34jB87cJKnFtfakshLU0X6VktClq5h/10HptldGuyNIICvtNImJ65Hqo2PUmnzHniLevhyrE6ZsIgMt3MjRqiOjXhPX319WkxBJ66ipkfoJImrK3k6+1LEg7gdTSGnhA3J6xRBi43qAPKvdItQIIspJRuJDkv/ifQKS6O9AtI1GkP25L16sTa2CiJoqF2vRIRbuB0lKaSF5cHoFGWLjSg7UzoTaB3N5Bkl8mP+yARUkEn8HbWI0Yj+RnA1vGUTwrpL1Sw6+WWRGJeTf91onBYX2/f31dkEEj1xdv4QcVLjQhKQ49T5JrTI6rXKY2x+jjEnjXn7kftXRc9z7JMhjKJm29QQ5f/68eDtHTgV5EtdlMa9XNXyt4i5Z06cb+fHqmyBAMR9pfamr/eJdJ2t8Q5kfFCB321u73SnPSCQPXza+4qz0Jw7aRmSE1MaXek3u81AFubuyD+m+KFpy4CY+Fg+tDniLxRAbRsMEEcUhZIQ+i4DFIizxxjboTwIkzjdQNYgQZ/DqnkSHY04mn+YSYe5JMtnSjDituyV+lxRqHUQUk5AR+oSFl3nAYhuQ/gEJtRtgsWoHs7hBXt1Th3DMJ5PTXCHJPTmZWJo5kXVSl49926XA64P8+17tpKDwvr+/3nYpcGVwI7yJVaNGpNOiv1+XRWHkfGJj0J5MP/msylV/ITk1rS1pxHrR9ePNxtIjLvslXyaVRv5AHIf/j6RKOFnJ9pHWF6ntl4Ck7JlHVl5S4h6A3G1v9Xan4u5q0lOHQ8wnnyZcYS45OdmSmDmtIx/goad6cp6HhFkHyXiHKeRkPpNQgyB5B/HdLmGFYDXTMP1jdL/ApIk2MNRoBH0rZywN/QOzrWV1ZWVB28AARlYD0TE/ELPc1qPc6yiOzLORvtKfWtPFF5MmwsZQA430reC8NBR/zLaW3ducpQ0DAyNYDeyI/MBZcFtfDq+jRzDP5n3KhY9539UXS0sPTQ3bwsa8ANcuncI+Pw+MWPQA3wT/hS3OVTvP6WPIbw/BF7246HiziYpx1FXyogG6fX3h1+UUlgenQvH+5bS+VCXKOIrdqQMxzVGJ5+5Ktb2VWWkAAyMrDOyYj8BZblhf7oWjR+aBHnoqIspE2NJgNFuxFl9J6pEpSkPovmIMcm2vXv3eJGBVRhLMv+ufSARUrpgmFQ+XZ3XFlDudYNNcDw5ztsLNKBYJ+U1h2aUDPtWV8ruCBOyesxJnsnMRF22G++khzAvqSCT+j11nj1be5VnoOuUOOtk0h57DHAR9b4WkvxOQ39QSXTp8CsnZIEDC7jlYeSYbuXHRMFuRhJBRatJ57zXZ+y7eeczqOgV3OtmguZ4DDu50k2Pf31+ChN2Ys/IMsnPjEG22Aukho5hXGoagMAVx8ZUrM3LQtEUHdG1vprogXZiGY4tX4d4Qfyzsq0zf9Y+kvjRE+yWz7a3d7ux0M8LfCfloatkFHT7VrbscKAXKsQwxm7yxz/gH/DzeSvn5jtREwwYRcih5HIv7WdwXC6iYWNqinTwzh6EEj2PvI4tLwOKYoIddOyb9PVXyGLH3s8AlLHBMLGHXTr7BgMrlnbr5wMpSFiXL+v1Rhrw8FoyN6yug/RDqi5rswwdfF+ubvOXIR34+DwZGeh9EYKZ2QQRFURRFUe8HeoeKoiiKoiil0CCCoiiKoiil0McZ9U6IjIvhSLZ2Qb9m9ROzCZMOYtnmy8gVsaBtNwUBHjbMKx8iIZIOLsPmy7kQsbRhN2UtPGwkdU0qxPWw62jm/BUs3veeS3Lvcw3CJBxcthmXc0VgadthW4AH8wJFUZRq0CCCl4m7128jOTMbueWtMGjCQFiobEyNCOlHvLHgrgt+Xeoke8njV0RlSL0ShqMX4pBRVIJSfhNY2A/B6FFOsJDQP62yV7W9nyGWzewBbXNbDLZpzryiOH5GDCLuZIOnQLVgcQzQvk8fWEoe7adiIuQlRCA6pRiJQYtwa8zfCJYyCqUsZgO+32WMn7a4o3IKfLWiUBlXjlqyh5/hMszsoQ1z20GwaS5HZRLlISEiGinFiQhadAtHEoKZFyiKolTjow8iRBkXsH1HGMKCfkOk6WLE3FiGLio64fDu/IxRyznwC52LjnJ9Jhcpp9djwao/wRo0HXOmDoe9eWNws+JwZvsC+BzQxrTfd8O7l2G151CVQUTvoP64ssel2oqKNRXd2A6fLakY5OeH4S0lnYT4uOFjB7eY7uhnIW/EQ5Abcx7aP91DyEjZPfD5aaewau5xWG7eDvdPJfwNwVNEBAYgKCoVxc95gEE79HSZimku1lWWqq7ER9RcBwT2isR+qUNZhXi8dyK8kqfhwIreMhZPayjKlHFlENEbQf2vYI9LnSWMG9t9sCV1EPb7D2fSxPhRmOsQiICY/UwCRVGUilQGER893g2ywFqTtPY8L302TEUJksimrxzJ4ps1VxaQQpBGjnv3IM2sxpKdsZJmASwlV+d3Jo2bu5CglOpzmNU55/1rXHJueiuiZeZMtj2QNgcaj1z/0YYM36vIbJc8EjW3Gxl3UPrvCDPOkIB504nHhPFkqK0pYTeyJ2sSJXwHwSOyb4oLmfNHAnmRA8JiEhc0nlg11iOdPcPJ02qzH8o5M6cgkawf7ESWv9VUewJSmpdLCrlKTb/4htJlXPeaMq9xz5HprbSImfM2JoGh1jO5UhT1PpP3cvODJsyIwrWHOujR105lE+0UHF+DbRpu8Owmx7Nr0VMcmfYFxh40g29YECZ3kfRcQBc9v5+K3oUnsPKXCPH1rKK08MXGWGSlHMeMBl4CtXJ56OHfL8OmXb9j3ah2UmdgKwhfgyMWy/HzGGu8yAG2Hjp99yvWuxrgXuD3WHyq6MX7FMJpj4ke5gheHoynIiZNLs+RcmYTfGbPgfdcH8weOQpTlsyH9+xZmLsqBLEFCn1Yw5Sx1hfYGJuFlOMzmASKoqj6RYMIsaKoK4hl2aCPg4oe6ouyEPb7JViPdIHsR9d83N0wHlP3lOGbgJ2YZi09jGF/YgubVkDaXyfwN59JVISWAQzqWmq3vmiZonWbT6BbZ+zCw82zZ3BiSX8M25FSZapkffT/0gF6okz8dfw6k6YYwyEj0fPOHoQ8knMC5uf3EbxgDnZk98H8DRuxIWA1JvW2x/Blv2DDps1YNVYffy6ehY1X8iBfKNFwZaxlYIB3UcQURX2c6q+5EZTg6b/3kZxZAgGTpJ64iI68CW773uj7KRv8wnT8m/QYBQqvt19F3mmEXbVE//6yp/oVpuzC/FXiq077WfAd2azuAmE3gY4OC8KMR0hR5PsJipCeXDm1MfOzWuKghaUFdNmV0xyzmLSXODq6aMwSobSkmElRkK4jBnwej+PHHlcJTqQQZeDI0i0oHLcBfhO6SewMq9POGT6bF6DNiSXYFiv7fkFDlLGgKB3JKXniUIyiKKrh1EMQwcW9fXMxwesXHLlxF3+f3I7F8zYhsoB5Wd3wYxF5PRemnY1xa9UCrN79F/6+FoSJvfvB91Ih8ybFcG9cwW3jLvj8E1nZW4bz/v44X6SLfu7jYSXrKYMwBzn5lXPgc8Cpfp6VquhmIBb6bMGJc1vwrf1Y7JH3arzBaaDjjxfxND8dx6e2qfLIQ4hHd+KQRzRhbdOFSVNUU3zetQ0Srl5D3WGICDnhG3HVbglmdJWx2BGnJYYtdUPh/3Yisc4sre8yLsLNwIXw2XIC57Z8C/uxeyBXEYue4dj3dmhtPQa7ktW1TlAUpe5UHkTwri+DW6Ahfty6HDPdRmPsqJ7Qi92GX0+VMO9QkCgTp1dNxoQJ7nB3l3ebgEnz9iFBjlsgwidRuJosAC85E82m+WH53MlwnbgQXnYpCFh3CM8UfPRdedJ7ci8JRS3aoZ2sERll5xESng5Rk34YMVTGFaqYKDseiZkicJq3Qkt5ulpkHoZfqD5mrFsMT49h6FQajh2Hqz4qkKQC8fvmYMaMGXJuM7Hhco6ct/Vl0YBukxq3+rk3EBRyG6T1OMyfZMUkKkoDbdq2gCD5Ph7WVSeEqTgQYQD3Ec3lOzB07DGlRyr+uFrH9X+9lrEImYf9EKo/A+sWe8JjWCeUhu/A4RQ5ggKSh8Tb95CefAvxT2kQQVGUclQcRPBx81AYknVNYMh8srAwHU+b/hfDe1YfhidMOw2/RbsRK+u5L9sUdsMnwcPDQ6FtkpsT2sgxrLKwsj8E/oMJP/vC+XUHBgEKC0sg4JXXuD1cisTjG7HUZy5mzl6IX0JjUXnRWJ0AT9KzoGFsCgMZucu/exU380TQ6NALDiayi6IwKhK3BSwY9XKCrcwTDBfXAiNg4TkKrcQfLSr8F8lZbDQ10KvxsKAmNsy6DMLgwYPl3L5Ez9a6Mj5TWXzEb/bBzix7LA7egGGmsvNIGi0TU+hlP0FGXUFEfiQeGwyEHCslM9gw/bIDuJH3mJ9rq9cy5l5DYIQFPEe1En8TEQr/TUYWuykM9OQoDU4H/HD8Fq7HRGCtoxwRKUVRlCTMKA0VqSDxq3oQLVZj8qntV8RtzioSdCVDnFob7+9NZMrsfeS+pBcbTDk5Mak50bTxJXeqfg/eVTLPSpNYeF2sMuSzkFxaOY34HksihQLxW55eIEv6mpEW3/xWYx9efqaZW5iMIZeElIWOIQYsNjF1D5f5XiJ8Rva6GBA2py3xPF/KJL4keYingGQ/ySSvBpiWhrsTM007siJe2vDOSvUzxPMNAUny60kaSRviWUP+pR9Jt9b9yLKIPFJ7cKWcQzwZ3ItexEJvOAmu4+0Vd5aTkSMWkpUrV9bYlpPpA/qTcUtrpou3ZR7EeeZx5hNqU00ZSxniKcgmTzJflzAJdzcjmnYrSK0ipkM8KYqqJ8pf2kmkgY7zgrB7dn+YZEUiZNNiTHKyxddbEmp1rtS0m4UdG8fjPyqa2Ekp/FhEXc9Ds559q30PQdxpnE01guOXPd4M+Sw4hs174kF0zaDPEX//5gPw06px0P5zDTZfrnq/ggUOmw0+jyfzFj9bUwuaLDb0DY1k3hISJu7Cb2eKoT9wLrydZDyvf4EDM/NmzFr1fNyOiEZhSwc4fibrobx64MZvxSSfZHwXdhJLHWXnj0wiEUQcjtThpZVYjXXRqvu3mFbrkc1UDLXtigFTaqaLtykD0UFPm/mE2uq1jDlmMG/G3EXg30ZEdCFaOjjiPSliiqI+ACoNIkSlechnWWPchtOIzcjH09sHMc++Ahd/24dbrx9bcPH0Zhj2HrqOp/IM2xBl4czaGfDwmIRJk+TdPDDFJwT3ZXy+MD0SVx9Vzg/Rvcr8EHzcCg1DotFguAwQN+T8AuSXiMMB7c/Q00Z8Uq7S203DxBj6KEJeftVnyiwYGuqhoqRE5jj/RlbtYcERoaiwoFrAIeI9B7fqR4rSEbxkE27qfoEVG6dB4WkehI8QeS0VevaOkGfaindNmBYK70VxGBNyAN/bMPNMCuJw6NDtl/9WAikpRXkTgxcBoDScFp+Bk5cGbWNjGFfbjNC0cWPoGtZMF5e/+P0w/4z5hNoaqoyFjyJxLVUP9o7dmMCRoiiq/qksiBCm7sSwts3Rfko4c/LUhFnXb7F0Wj80MTaB8YtGUYiUg2ux4+GnIMfGwG2rrE5+YmwjfO48Fq6uroptIxzQUsZdjsr+EHdZtnDsU2V+CP4/CD2WjGb/NwaDxOevvCN+2HSrAmjcC/MPHcZip1eTLwvx8Mx5JJkOwQinqlMRa6B1a3Ow8nOQI2PnOJ8NhUt3LRTeiMLtyiBLlIfLmxfgJ/+NWLfgJ+x7EQVxEbd1KhZcaAavPXvh2UHxWzei3EhExWvAzrE3ZE9M/W6J8i9h1bKbGPzrVoxu++Z0KEy/hKgk5geFiVCclYXn5hawqCv7dPuhD+sSTsndm5aHW8cyYfHfFszPtTVMGYuQGxmFeA07OPaWv4RFJY9x71GB7GOQoihKCtUFEU8Skd1iOHwmO765EhJl4uRfGXD+3vXlolb8mwhN7IJZIzh4EP8c+kZN6ry9/JImmnV2xIABAzFwoLzbADh1byNjrYTnuB55E7z/9IFj1RmhCmNxN9UAA5wdoSO4h+AbphjWq/bkQLy4zfDaUoapuzZipFnVbGTD2NYGLdOTkCSOPerEsYbn2jnokrEXq4P+xfN/duOisTdW+y6C79LP8eDQn7i47luM3q6FWcfOImDIJ0oVWPnVKMRUWKNPX1PV3npSGAGfX5kpFeL/S1iy5fkdbBw7DeG5OTi+bMrrO0sTJ7hi1LjtyGlrybxRUQIkJj6GcVdbtKmzwunD+bu2uLTxHPLkiCN4cYEIEgyDe9s6PrRByrgcV6NiUGHdB33l7XwqTESAc0d07vQV1sbJc0uQoiiqNpWdUzR7euGH/zND3o1jOPbnGRwP+RVLPRciun8gtn/LDJnTFF/NLx0OnSu/42DuYLj+n+mL330nBMn4+04hWjoOQLULP+N+cHY0RM7tg9iwIBCscTNQc9VlfvI+eM6NhvOBs1j3X7NamajZtR96cW7jRrzsxlmv70qcOOoF9tbRGO0fibTibKTERyEs5BLO7V6CHRVTcSImHAv7ifOqKEeJCaP4+CcyGsWtesNR5j1yNnT1NBC10BYdOnSQc+sKt/050K5rmsTSi/D/zh1uY1wwcddD6Og8wu5JwzHW3R3frb2Al4N/+bi+whULzz3AnRN7EBQU9Hr7fW8Iwv7RQFsr6X0P6iRMQ3RMMXr0r9LHRQpOB0/4dDmLhQFX6gwkuPf3w2cbMPlHJ5kLe9V7GfP/QWR0MVr1dpT/MQhLD81bmqKJVipiY5Qcfk1RFMV0sFSZ8uwkcuvqFRIdm0IKJI68KCRh7uak7fSzpJSXQVIz5FygSuWEJC/5HkmT1Fuf94zcvxlDHhbUHkHAS9pHZk1cTs4+fflaRfwB8seNmvtQTi54WZHuy+9KHJkikfhvxp0NJtsD/In/+m1k3xFf8oX1THLp9fCQAnLK24sEZdUep1DnAlyCBLLSTpOYuB4h1cd0vO/kH50hTNlEBlq4kaOFTIJMFSTt9BoyY9piEnguiRQIeOTqYh/yh/hPlT+JJn+smU2mLNxL4hTNUKXLuO4FuAQJK4mdpglxPSLlC9UxOkOQ8AtZHSJpMTCKoijZVHYn4pXGZlawcegN+y5tYCDp0W7peYT+pY+RExzBPbENe/99V7dS2TBq1wEtJT1C1jTFf7p3Q1uD6pd1vMTf4Tn/CtoP7w32vcu4cP409m87gSROzWxsDMdp30Hr+D7clPeqUvw3Ow0ah+ne8zF/7gyM79Mc7NSTCDqWirKiZPy50hWLn/WFsxy3q7lPk/CIWSBKmHwSfyY0Qb+v+kGeMR0fHgES9oeieKwXvqq+lngdNNDyq4XYtnEKOuacwM/zfRCSnolLvvOw7Pc4GLgsw29r3NBJ0QxVWRlz8TTpEV4WsRDJJ/9EQpN++Kqf4iVcnMCDtrWSd3goiqKYYKLh8K6RJd0diIf/CvKj/6kayzurscJTZFrbRoRV+WC/ysbScyH7JV7IlZLIHxzJ8P+lSpjjQA7FIWSEPouAxSIs8cY26E8CEiTf16h6J6Li7mrSU4dDzCefJlxhLjk52ZKYOa0jb7UStlqS706EMOsgGe8whZzMZxLUidxlXPVORAW5u7on0eGYk8mnuUSYe5JMtjQjTutuVZnTpAZpdyIEyWSH73Yix5QdFEVREqn8ToRMmr2w4spJrJw4D+vmD5FjlUs1oT8Evz3kQ0RIZeD1ehMVH4WrxMU/ddHX1w9dTi1HcKoS/d91v8CkiTYw1GgEfStnLA39A7PlmEqRpW0AAyMrDOyYj8BZblhf7oWjR+bBRlZngA+RKBNhS4PRbMVafCV7LbSGp1QZs6BtYAAjq4HomB+IWW7rUe51FEfm2cjs71GdCGmh+1A8yBXt5e1HQVEUVQOrMpJg/k3VA2HaMSxedQ9D/BeirzInMpEIYNcdafEuz0LXKXfQyaY59BzmYKebEf5OyEdTyy7o8Kmu6nrPqgUBEnbPwcoz2ciNi4bZiiSEjJL0TKoMMZu8sc/4B/w83kq9506QWcY8XJ7VFVPudIJNcz04zNkKN6NYJOQ3hWWXDvhUV8rvChKwe85KnMnORVy0Ge6nhzAvUBRFqQYNIhpCWR7yWMYwrq9JGkoeI/Z+FriEBY6JJezaGTEvfJhKHsfifhYXhMWBiaUt2klarxt85OfzYGCk90EEUfLtc00leBx7H1lcAhbHBD3s2jHpFEVRqkGDCIqiKIqilPIhXKRRFEVRFPUO0CCCoiiKoiil0CCCoiiKoiil0CCCoiiKoiil0CCCoiiKoiil0CCCoiiKoiil0CCCoiiKoiil0CCCoiiKoiil0CCCoiiKoiil0CCCoiiKoiil0CCCoiiKoiil0CCCoiiKoiil0CCCoiiKoiil0CCCoiiKoiil0CCCoiiKoiil0CCCoiiKoiglAP8PMdygJTMEFkIAAAAASUVORK5CYII=;" parent="1" vertex="1">
          <mxGeometry x="-145" y="857.78" width="282.4" height="46.44" as="geometry" />
        </mxCell>
        <mxCell id="DjFTVbm2SqqyD_zfQVQ5-45" value="" style="edgeStyle=orthogonalEdgeStyle;rounded=0;orthogonalLoop=1;jettySize=auto;html=1;" parent="1" source="DjFTVbm2SqqyD_zfQVQ5-34" target="DjFTVbm2SqqyD_zfQVQ5-44" edge="1">
          <mxGeometry relative="1" as="geometry" />
        </mxCell>
        <mxCell id="DjFTVbm2SqqyD_zfQVQ5-34" value="&lt;br&gt;i = i + 1" style="rounded=1;whiteSpace=wrap;html=1;verticalAlign=top;labelBackgroundColor=default;align=center;" parent="1" vertex="1">
          <mxGeometry x="-165" y="1050.9950000000001" width="120" height="60" as="geometry" />
        </mxCell>
        <mxCell id="DjFTVbm2SqqyD_zfQVQ5-38" value="" style="endArrow=classic;html=1;rounded=0;exitX=1;exitY=0.5;exitDx=0;exitDy=0;" parent="1" source="DjFTVbm2SqqyD_zfQVQ5-44" edge="1">
          <mxGeometry width="50" height="50" relative="1" as="geometry">
            <mxPoint x="-35" y="1196.465" as="sourcePoint" />
            <mxPoint x="-5" y="801" as="targetPoint" />
            <Array as="points">
              <mxPoint x="175" y="1201" />
              <mxPoint x="175" y="981" />
              <mxPoint x="175" y="801" />
            </Array>
          </mxGeometry>
        </mxCell>
        <mxCell id="DjFTVbm2SqqyD_zfQVQ5-48" value="" style="edgeStyle=orthogonalEdgeStyle;rounded=0;orthogonalLoop=1;jettySize=auto;html=1;" parent="1" source="DjFTVbm2SqqyD_zfQVQ5-44" edge="1">
          <mxGeometry relative="1" as="geometry">
            <mxPoint x="-105.00499999999965" y="1281" as="targetPoint" />
          </mxGeometry>
        </mxCell>
        <mxCell id="DjFTVbm2SqqyD_zfQVQ5-44" value="Keystream đã đủ số bits" style="rhombus;whiteSpace=wrap;html=1;" parent="1" vertex="1">
          <mxGeometry x="-176.19" y="1161" width="142.38" height="80" as="geometry" />
        </mxCell>
        <mxCell id="DjFTVbm2SqqyD_zfQVQ5-46" value="True" style="text;html=1;strokeColor=none;fillColor=none;align=center;verticalAlign=middle;whiteSpace=wrap;rounded=0;" parent="1" vertex="1">
          <mxGeometry x="-177.39" y="1241" width="60" height="30" as="geometry" />
        </mxCell>
        <mxCell id="DjFTVbm2SqqyD_zfQVQ5-49" value="Kết thúc" style="strokeWidth=2;html=1;shape=mxgraph.flowchart.terminator;whiteSpace=wrap;" parent="1" vertex="1">
          <mxGeometry x="-155" y="1281" width="100" height="60" as="geometry" />
        </mxCell>
        <mxCell id="DjFTVbm2SqqyD_zfQVQ5-50" value="False" style="text;html=1;strokeColor=none;fillColor=none;align=center;verticalAlign=middle;whiteSpace=wrap;rounded=0;" parent="1" vertex="1">
          <mxGeometry x="-7.5" y="1161" width="60" height="30" as="geometry" />
        </mxCell>
      </root>
    </mxGraphModel>
  </diagram>
</mxfile>
